<svg xmlns="http://www.w3.org/2000/svg" xmlns:xlink="http://www.w3.org/1999/xlink" width="223.523" height="85" viewBox="0 0 223.523 85"><defs><linearGradient id="a" x1="0.838" x2="0.111" y2="1.22" gradientUnits="objectBoundingBox"><stop offset="0" stop-color="#1998d5"/><stop offset="1" stop-color="#263c81"/></linearGradient><filter id="b" x="9" y="0" width="85" height="85" filterUnits="userSpaceOnUse"><feOffset dy="3" input="SourceAlpha"/><feGaussianBlur stdDeviation="3" result="c"/><feFlood flood-opacity="0.161"/><feComposite operator="in" in2="c"/><feComposite in="SourceGraphic"/></filter><linearGradient id="d" x1="0.5" x2="0.742" y2="0.907" gradientUnits="objectBoundingBox"><stop offset="0" stop-color="#fff"/><stop offset="1" stop-color="#224467"/></linearGradient><linearGradient id="e" x1="0.5" x2="0.5" y2="1" gradientUnits="objectBoundingBox"><stop offset="0" stop-color="#fd5600"/><stop offset="1" stop-color="#b30000"/></linearGradient><filter id="f" x="10.024" y="0.001" width="84.073" height="84.067" filterUnits="userSpaceOnUse"><feOffset dy="3" input="SourceAlpha"/><feGaussianBlur stdDeviation="3" result="g"/><feFlood flood-opacity="0.161"/><feComposite operator="in" in2="g"/><feComposite in="SourceGraphic"/></filter></defs><g transform="translate(0 6)"><g transform="translate(-265 48)"><path d="M562.7,145.533c2.493-4.566,6.256-16.1,10.761-29.418a21.659,21.659,0,0,0,.874-3.367v-4.121c-1.41-6.792-10.508-9.107-23.738-16.123-8.468-4.493-15.3-5.983-21.852-5.983-7.186,0-165.852,22.593-165.852,22.593-7.874,1.016-12.567,6.5-12.041,10.6,1.056,8.243,2.388,19.213,3.719,25.817" transform="translate(-85.807 -117.054)" fill="url(#a)"/></g><g transform="translate(-8677 -157.999)"><g transform="translate(8695 158)"><g transform="matrix(1, 0, 0, 1, -18, -6)" filter="url(#b)"><circle cx="33.5" cy="33.5" r="33.5" transform="translate(18 6)" fill="#fff"/></g><path d="M50.755,15.593s5.727,6.1,16.075,17.67c0,18.5-14.411,33.317-33.5,33.5C9.744,46.444,11.222,41.086,11.222,41.086Z" transform="translate(0.17 0.236)" opacity="0.24" fill="url(#d)"/><g transform="translate(25.203 0) rotate(30)"><g transform="matrix(0.87, -0.5, 0.5, 0.87, -40.42, 16.4)" filter="url(#f)"><path d="M24.187,0A24.179,24.179,0,1,1,0,24.179,24.183,24.183,0,0,1,24.187,0Z" transform="translate(43.2 6) rotate(30)" fill="url(#e)"/></g><g transform="translate(21.057 0.015)"><rect width="0.809" height="48.359" transform="translate(2.72 0)" fill="#fff"/><path d="M0,1.417V0H.807V1.509" transform="translate(0 46.728)" fill="#fff"/><path d="M.807,0V3H0V0Zm0,6V9H0V6Zm0,6v3H0V12Zm0,6v3H0v-3Zm0,6v3H0v-3Zm0,6v3H0v-3Zm0,6v3H0v-3Z" transform="translate(0 4.668)" fill="#fff"/><path d="M.807,0V1.509H0V.092" transform="translate(0 0.09)" fill="#fff"/><path d="M0,1.509V0H.807V1.417" transform="translate(5.451 46.728)" fill="#fff"/><path d="M.807,0V3H0V0Zm0,6V9H0V6Zm0,6v3H0V12Zm0,6v3H0v-3Zm0,6v3H0v-3Zm0,6v3H0v-3Zm0,6v3H0v-3Z" transform="translate(5.451 4.668)" fill="#fff"/><path d="M.807.092V1.509H0V0" transform="translate(5.451 0.09)" fill="#fff"/></g></g></g></g></g></svg>