<svg xmlns="http://www.w3.org/2000/svg" xmlns:xlink="http://www.w3.org/1999/xlink" width="485.811" height="73.967" viewBox="0 0 485.811 73.967"><defs><linearGradient id="a" x1="0.5" x2="0.5" y2="1" gradientUnits="objectBoundingBox"><stop offset="0" stop-color="#f6af1b"/><stop offset="1" stop-color="#ea911e"/></linearGradient><filter id="b" x="49.915" y="0" width="375.952" height="71.286" filterUnits="userSpaceOnUse"><feOffset dy="3" input="SourceAlpha"/><feGaussianBlur stdDeviation="3" result="c"/><feFlood flood-opacity="0.161"/><feComposite operator="in" in2="c"/><feComposite in="SourceGraphic"/></filter></defs><g transform="translate(0 2.666)"><g transform="translate(-110.633 -224.225)"><g transform="translate(550.783 227.446)"><g transform="translate(-0.001 0)"><path d="M236.968-306.093c-1.341-1.943-4-1.057-5.595.031a9.932,9.932,0,0,0-3.39,4.17,13.653,13.653,0,0,1-2.274-.744,16.193,16.193,0,0,1-7.58-7.214,6.184,6.184,0,0,1-1.592.948,22.166,22.166,0,0,0,1.867,3.431,15.269,15.269,0,0,0,8.691,6.454q-.042.192-.081.384c-.05.212-.137.642-.21,1.03a20.145,20.145,0,0,0-.464,3.193,13.82,13.82,0,0,0,1.466,6.553,23.677,23.677,0,0,0,8.248,9v-3.369c-.578-.414-1.148-.842-1.7-1.3-3.059-2.523-5.79-5.772-6.665-9.7a12.518,12.518,0,0,1,.47-5.562,4.416,4.416,0,0,0,1.105.138,10.4,10.4,0,0,0,5.973-1.218,3.674,3.674,0,0,0,1.126-.936,6.37,6.37,0,0,0,.772-2.551A3.317,3.317,0,0,0,236.968-306.093Zm-2.021,3.709a10.271,10.271,0,0,1-2.976.762,11.841,11.841,0,0,1-2.823-.054,8.153,8.153,0,0,1,3.588-2.411,3.491,3.491,0,0,1,2.84.187,2.676,2.676,0,0,1,.784.73A6.413,6.413,0,0,1,234.947-302.384Z" transform="translate(-216.537 309.85)" fill="#db1c81"/><path d="M241.525-298.84a8.157,8.157,0,0,1,3.588-2.411,3.491,3.491,0,0,1,2.84.187,2.677,2.677,0,0,1,.784.73,2.072,2.072,0,0,0,.978-1.356,2.384,2.384,0,0,0-.37-1.567c-1.341-1.943-4-1.056-5.595.031a9.931,9.931,0,0,0-3.39,4.17C240.046-299.127,241.191-298.861,241.525-298.84Z" transform="translate(-228.914 307.013)" fill="#a20e66"/></g></g><g transform="translate(124.814 259.124)"><path d="M317.632-225.166c.029.362-.634.784-.6,1.156.286,3.6,2.51,6.485,5.263,8.667,2.86,2.268,6.437,3.722,8.978,6.373,2.153,2.246,4.014,6.068,1.231,8.589-.117.106-.242.208-.369.309a4.54,4.54,0,0,0-.894-1.228,3.691,3.691,0,0,0-4.917-.258,5.694,5.694,0,0,0-.724,1.1,4.614,4.614,0,0,0-.254.916,1.724,1.724,0,0,0,1.155,1.862c1.6.72,3.568-.063,5.013-1.237a6.08,6.08,0,0,1,.567,1.98l.635-.878a5.979,5.979,0,0,0-.4-1.854,6.354,6.354,0,0,0,.714-.906,9.713,9.713,0,0,0,1.365-3.083c.582-2.848-1.305-5.483-3.352-7.265C326.08-215.237,318.24-217.492,317.632-225.166Zm13.568,25.72a5.825,5.825,0,0,1-3,.843c-1.2-.039-2.813-.935-2.316-1.973.574-1.2,2.986-.812,4.225.021A4,4,0,0,1,331.2-199.446Z" transform="translate(-317.027 225.166)" fill="#db1c81"/><path d="M349.572-127.722a1.868,1.868,0,0,0,1.061,1.025,3.194,3.194,0,0,0,1.16.269,1.686,1.686,0,0,1-.472-.328,1.952,1.952,0,0,1-.555-1.336,1.765,1.765,0,0,1-.77-.794.859.859,0,0,1,.029-.713A2.62,2.62,0,0,0,349.572-127.722Z" transform="translate(-341.165 154.188)" fill="#db1c81" opacity="0.4" style="mix-blend-mode:multiply;isolation:isolate"/><path d="M376.494-130.428a4.768,4.768,0,0,1-.4.41c-.117.106-.242.208-.369.309-.009-.019.137.276.184.408a6.356,6.356,0,0,0,.714-.906l0,0A1.3,1.3,0,0,1,376.494-130.428Z" transform="translate(-360.623 154.804)" fill="#db1c81" opacity="0.4" style="mix-blend-mode:multiply;isolation:isolate"/><path d="M369.48-125.2a7.189,7.189,0,0,1-.912.437c.247.05.358.535.333.724a8.087,8.087,0,0,0,.888-.627A4.462,4.462,0,0,0,369.48-125.2Z" transform="translate(-355.307 150.924)" fill="#db1c81" opacity="0.4" style="mix-blend-mode:multiply;isolation:isolate"/></g><g transform="translate(110.634 224.225)"><path d="M373.068-367.322c2.045,13.761,11.556,28.162,1.99,41.342.451-.622,2.1-.39,2.561-1.029,4.49-6.185,4.873-13.881,3.445-21.174-1.485-7.578-5.241-14.833-5.685-22.589-.376-6.57,1.883-15.276,9.822-15.509.333-.01.675,0,1.018.012a9.594,9.594,0,0,0-.249,3.205c.365,3.778,3.74,7.433,7.555,7.17a12.061,12.061,0,0,0,2.682-.782,9.831,9.831,0,0,0,1.668-1.123,3.65,3.65,0,0,0,.7-4.582c-1.59-3.363-5.827-4.8-9.764-4.9a13.765,13.765,0,0,1,3.572-6.129c5.311-5.358,16.724-3.478,18.328,4.565-.029-.146,2.6-.843,2.561-1.029-1.787-8.957-12.685-8.44-19.157-5.456a14.689,14.689,0,0,0-7.633,8.154,13.4,13.4,0,0,0-2.394.477,20.542,20.542,0,0,0-6.432,3.085C372.81-379.836,372.224-373,373.068-367.322Zm21.486-15.914c1.885,1.717,3.24,5.37,1.013,6.357-2.571,1.139-5.919-2.8-6.767-5.841a8.45,8.45,0,0,1-.225-3.277A12.327,12.327,0,0,1,394.554-383.236Z" transform="translate(-372.747 397.282)" fill="#f4d532"/><path d="M417.38-368.837a3.953,3.953,0,0,0-.3-3.107,6.748,6.748,0,0,0-1.5-2.027,3.588,3.588,0,0,1,.309,1.176,4.13,4.13,0,0,1-.944,2.911,3.73,3.73,0,0,1,.147,2.335,1.816,1.816,0,0,1-1.025,1.107A5.543,5.543,0,0,0,417.38-368.837Z" transform="translate(-391.252 386.844)" fill="#c5c5c5" opacity="0.4" style="mix-blend-mode:multiply;isolation:isolate"/><path d="M393.118-377.978a10.1,10.1,0,0,1,1.206-.111c.333-.01.675,0,1.018.012-.01.043.158-.633.265-.908a13.4,13.4,0,0,0-2.394.477l-.007,0A2.725,2.725,0,0,1,393.118-377.978Z" transform="translate(-381.869 389.089)" fill="#c5c5c5" opacity="0.4" style="mix-blend-mode:multiply;isolation:isolate"/><path d="M401.411-377.906a15.148,15.148,0,0,1,2.068.549c-.328-.42.159-1.353.459-1.621a17.111,17.111,0,0,0-2.291-.213A9.495,9.495,0,0,0,401.411-377.906Z" transform="translate(-385.582 389.19)" fill="#c5c5c5" opacity="0.4" style="mix-blend-mode:multiply;isolation:isolate"/></g><path d="M176.14-234.336c-.025.231-1.4.328-1.431.579-.619,5.792-4.534,9.661-9.592,12.446-5.04,2.774-9.724,5.945-12.323,11.289-2.818,5.8-1.075,13.224-2.645,19.314-1.342,5.205-5.886,10.961-11.695,7.471-.273-.164-1.174.734-1.431.579,3.618,2.174,8.75.476,11.456-2.508,4.849-5.348,3.469-13.2,4.723-19.745,1.262-6.58,5.814-11.623,11.531-14.861,2.851-1.614,5.6-3,7.719-5.586A16.939,16.939,0,0,0,176.14-234.336Z" transform="translate(420.304 477.201)" fill="#f4d532"/></g><g transform="matrix(1, 0, 0, 1, 0, -2.67)" filter="url(#b)"><g transform="translate(61.71 46.01)" fill="url(#a)"><path d="M 91.87199401855469 10.77199935913086 C 90.32490539550781 10.77199935913086 88.75708770751953 10.63327217102051 87.21208953857422 10.35972690582275 C 85.68486022949219 10.08927154541016 84.24217987060547 9.723953247070313 82.92413330078125 9.273862838745117 L 80.83477020263672 8.560408592224121 L 81.28435516357422 6.398908138275146 L 82.42835998535156 0.898908257484436 L 83.03567504882813 -2.02072811126709 L 84.80538940429688 -1.312832951545715 C 84.25637817382813 -1.722496628761292 83.74797058105469 -2.187139749526978 83.28104400634766 -2.706409931182861 C 81.63480377197266 -4.537110328674316 80.61914825439453 -6.897831439971924 80.24799346923828 -9.746829986572266 L 80.24799346923828 -8.239746307481255e-07 L 80.24799346923828 2.499999284744263 L 77.74799346923828 2.499999284744263 L 71.19199371337891 2.499999284744263 L 68.69199371337891 2.499999284744263 L 68.69199371337891 -8.239746307481255e-07 L 68.69199371337891 -12.2760009765625 C 68.69199371337891 -14.55179500579834 68.33450317382813 -15.27740478515625 68.24916839599609 -15.41797065734863 C 68.20735931396484 -15.44443416595459 67.95176696777344 -15.58400058746338 67.23199462890625 -15.58400058746338 C 67.10101318359375 -15.58400058746338 66.96619415283203 -15.5819091796875 66.82799530029297 -15.57774829864502 L 66.82799530029297 -8.239746307481255e-07 L 66.82799530029297 2.499999284744263 L 64.32799530029297 2.499999284744263 L 57.77199554443359 2.499999284744263 L 55.27199554443359 2.499999284744263 L 55.27199554443359 -8.239746307481255e-07 L 55.27199554443359 -22.35200119018555 L 55.27199554443359 -24.23095512390137 L 57.07681274414063 -24.75341033935547 C 58.30263137817383 -25.10827445983887 59.81258392333984 -25.42550086975098 61.6929931640625 -25.72322845458984 C 63.57358551025391 -26.02099990844727 65.57040405273438 -26.17200088500977 67.62799835205078 -26.17200088500977 C 69.9305419921875 -26.17200088500977 71.83458709716797 -25.8634090423584 73.44890594482422 -25.22854614257813 C 75.15377044677734 -24.55818176269531 76.54240417480469 -23.57299995422363 77.57631683349609 -22.3004093170166 C 78.56781005859375 -21.08013725280762 79.27877044677734 -19.62863731384277 79.68936157226563 -17.98636436462402 C 79.96513366699219 -16.88327789306641 80.13976287841797 -15.68507385253906 80.21110534667969 -14.41046524047852 C 80.35797119140625 -15.62508773803711 80.63578033447266 -16.77537155151367 81.04222106933594 -17.84790992736816 C 81.69626617431641 -19.57390975952148 82.66963195800781 -21.0814094543457 83.93517303466797 -22.32863807678223 C 85.19658660888672 -23.57172775268555 86.74599456787109 -24.53868293762207 88.54045104980469 -25.20263671875 C 90.27886199951172 -25.84586524963379 92.24353790283203 -26.17200088500977 94.37999725341797 -26.17200088500977 C 95.24072265625 -26.17200088500977 96.13581085205078 -26.13177299499512 97.0404052734375 -26.05245590209961 C 97.91694641113281 -25.97554588317871 98.79881286621094 -25.87409210205078 99.66149139404297 -25.75086402893066 C 100.5364456176758 -25.62590980529785 101.3868560791016 -25.47481918334961 102.1890411376953 -25.30181884765625 C 102.9976348876953 -25.12745475769043 103.7355422973633 -24.94063758850098 104.3824005126953 -24.74654579162598 L 106.1639938354492 -24.21204566955566 L 106.1639938354492 -22.35200119018555 L 106.1639938354492 -2.904000759124756 C 106.1639938354492 1.572408318519592 104.9339065551758 5.015862941741943 102.5078125 7.330726623535156 C 101.26904296875 8.512771606445313 99.70217895507813 9.401907920837402 97.85081481933594 9.97331714630127 C 96.13367462158203 10.50327205657959 94.12213134765625 10.77199935913086 91.87199401855469 10.77199935913086 Z M 94.42399597167969 -15.89200115203857 C 93.08444976806641 -15.89200115203857 92.71562957763672 -15.39600086212158 92.55812835693359 -15.18422794342041 C 92.0318603515625 -14.47645568847656 91.77599334716797 -13.53954601287842 91.77599334716797 -12.32000064849854 C 91.77599334716797 -10.69622802734375 92.12408447265625 -10.02300071716309 92.33154296875 -9.766182899475098 C 92.43013000488281 -9.644182205200195 92.69208526611328 -9.320000648498535 93.71999359130859 -9.320000648498535 C 94.03549194335938 -9.320000648498535 94.33295440673828 -9.348993301391602 94.60799407958984 -9.406354904174805 L 94.60799407958984 -15.89116287231445 C 94.54771423339844 -15.89172077178955 94.48636627197266 -15.89200115203857 94.42399597167969 -15.89200115203857 Z M 328.1080017089844 3.115999221801758 C 325.8219604492188 3.115999221801758 323.9408569335938 2.917362928390503 322.3572692871094 2.508681058883667 C 320.8241882324219 2.113044738769531 319.7982177734375 1.790135502815247 319.1285705566406 1.492499232292175 L 318.0679931640625 1.0211021900177 L 318.0679931640625 2.499999284744263 L 315.5679931640625 2.499999284744263 L 309.0119934082031 2.499999284744263 L 306.5119934082031 2.499999284744263 L 306.5119934082031 -8.239746307481255e-07 L 306.5119934082031 -12.2760009765625 C 306.5119934082031 -14.5516529083252 306.154541015625 -15.27733993530273 306.0691528320313 -15.41796970367432 C 306.0273742675781 -15.44443416595459 305.7717590332031 -15.58400058746338 305.052001953125 -15.58400058746338 C 304.9210205078125 -15.58400058746338 304.7861938476563 -15.5819091796875 304.6479797363281 -15.57774829864502 L 304.6479797363281 -8.239746307481255e-07 L 304.6479797363281 2.499999284744263 L 302.1479797363281 2.499999284744263 L 295.5919799804688 2.499999284744263 L 293.0919799804688 2.499999284744263 L 293.0919799804688 -8.239746307481255e-07 L 293.0919799804688 -22.35200119018555 L 293.0919799804688 -24.23095512390137 L 294.8968200683594 -24.75341033935547 C 296.1225891113281 -25.10822868347168 297.6325378417969 -25.42545509338379 299.5130004882813 -25.72322845458984 C 301.3935852050781 -26.02099990844727 303.3904113769531 -26.17200088500977 305.447998046875 -26.17200088500977 C 307.7505493164063 -26.17200088500977 309.6545715332031 -25.8634090423584 311.2688903808594 -25.22854614257813 C 312.9736633300781 -24.55818176269531 314.3623046875 -23.57304573059082 315.3962707519531 -22.30050086975098 C 316.3878173828125 -21.08013725280762 317.0987548828125 -19.62863731384277 317.5093688964844 -17.98636436462402 C 317.8800354003906 -16.50341033935547 318.0679931640625 -14.84863758087158 318.0679931640625 -13.06800079345703 L 318.0679931640625 -3.099664449691772 L 318.7957153320313 -6.621864318847656 L 319.3971252441406 -9.532773971557617 L 322.1619567871094 -8.441364288330078 C 322.9267272949219 -8.139469146728516 323.7158203125 -7.886002063751221 324.515869140625 -7.68498420715332 C 324.2137451171875 -7.820587635040283 323.92138671875 -7.95775842666626 323.6397094726563 -8.096137046813965 C 322.5701904296875 -8.621546745300293 321.6358642578125 -9.270182609558105 320.8626708984375 -10.02404594421387 C 320.0311889648438 -10.8347282409668 319.3804931640625 -11.8080005645752 318.9287719726563 -12.91672801971436 C 318.4849853515625 -14.00590991973877 318.260009765625 -15.28554630279541 318.260009765625 -16.72000122070313 C 318.260009765625 -19.6474552154541 319.4288635253906 -22.1086368560791 321.6401672363281 -23.83750152587891 C 323.6962280273438 -25.44495582580566 326.4496765136719 -26.26000022888184 329.8240051269531 -26.26000022888184 C 331.3840942382813 -26.26000022888184 332.9055480957031 -26.11890983581543 334.3461303710938 -25.84063720703125 C 335.7947082519531 -25.56081962585449 336.9406433105469 -25.25486373901367 337.8493957519531 -24.90536499023438 L 339.8633728027344 -24.13077354431152 L 339.3914489746094 -22.02522850036621 L 338.2474975585938 -16.92122840881348 L 337.6353149414063 -14.18995571136475 L 334.990234375 -15.10554599761963 C 334.7666015625 -15.18294811248779 334.5347595214844 -15.25796890258789 334.2955017089844 -15.33040332794189 C 334.7168273925781 -15.13144779205322 335.1090087890625 -14.93175315856934 335.4749145507813 -14.73004627227783 C 336.65234375 -14.08095550537109 337.6176452636719 -13.34468269348145 338.3440551757813 -12.54159164428711 C 339.1349182128906 -11.66727352142334 339.7015380859375 -10.67313671112061 340.0281372070313 -9.586864471435547 C 340.2577209472656 -8.823301315307617 340.3974304199219 -7.973464488983154 340.4453125 -7.052679061889648 C 340.7112426757813 -7.468309879302979 341.0065002441406 -7.813330173492432 341.2980651855469 -8.096562385559082 L 341.1197814941406 -9.380045890808105 C 340.8226318359375 -11.51913738250732 340.5739440917969 -13.65922832489014 340.3806762695313 -15.74081897735596 C 340.1838073730469 -17.86113739013672 340.083984375 -20.17422866821289 340.083984375 -22.61600112915039 L 340.083984375 -30.49200057983398 L 340.083984375 -32.99200057983398 L 342.583984375 -32.99200057983398 L 349.5799865722656 -32.99200057983398 L 352.0799865722656 -32.99200057983398 L 352.0799865722656 -30.49200057983398 L 352.0799865722656 -22.61600112915039 C 352.0799865722656 -20.18013763427734 351.9880981445313 -17.87290954589844 351.8068542480469 -15.75850105285645 C 351.6279907226563 -13.67163753509521 351.38623046875 -11.52563762664795 351.0882263183594 -9.380091667175293 L 350.8993225097656 -8.019987106323242 C 351.7716979980469 -7.140758037567139 352.6520080566406 -5.701756477355957 352.6520080566406 -3.476000785827637 C 352.6520080566406 -0.9145917296409607 351.4862670898438 0.6047719120979309 350.50830078125 1.428271889686584 C 349.213134765625 2.518953800201416 347.7164916992188 3.071999073028564 346.0599975585938 3.071999073028564 C 344.4035034179688 3.071999073028564 342.9068603515625 2.518953800201416 341.6116638183594 1.428271889686584 C 340.8052062988281 0.7491759061813354 339.8710632324219 -0.4030526578426361 339.5682373046875 -2.222716569900513 C 338.9516296386719 -0.9711478352546692 338.0224304199219 0.09013380855321884 336.7989807128906 0.924862802028656 C 334.6680908203125 2.378817319869995 331.7439880371094 3.115999221801758 328.1080017089844 3.115999221801758 Z M 279.1799926757813 3.115999221801758 C 277.1516418457031 3.115999221801758 275.2633972167969 2.75399923324585 273.56787109375 2.040090084075928 C 271.853271484375 1.318135499954224 270.3577270507813 0.2798628211021423 269.1227111816406 -1.045955419540405 C 267.9029541015625 -2.355409860610962 266.9446716308594 -3.940319061279297 266.2745361328125 -5.756637096405029 C 265.6172790527344 -7.538319110870361 265.2839965820313 -9.509636878967285 265.2839965820313 -11.61600112915039 C 265.2839965820313 -13.73250102996826 265.6281433105469 -15.70572853088379 266.3068542480469 -17.48086357116699 C 266.9959411621094 -19.2830924987793 267.9737243652344 -20.85259246826172 269.2130432128906 -22.14577293395996 C 270.4578247070313 -23.44468307495117 271.95263671875 -24.46695518493652 273.6558532714844 -25.18409156799316 C 275.3513488769531 -25.89800071716309 277.2099609375 -26.26000022888184 279.1799926757813 -26.26000022888184 C 281.1791687011719 -26.26000022888184 283.0525817871094 -25.89800071716309 284.7481384277344 -25.18409156799316 C 286.4571838378906 -24.46445465087891 287.9487609863281 -23.43781852722168 289.1814880371094 -22.13259124755859 C 290.4051818847656 -20.83691024780273 291.366455078125 -19.26513671875 292.0386657714844 -17.46081924438477 C 292.6978149414063 -15.69154644012451 293.031982421875 -13.7250919342041 293.031982421875 -11.61600112915039 C 293.031982421875 -9.524318695068359 292.7184143066406 -7.566546440124512 292.1000061035156 -5.797137260437012 C 291.4595947265625 -3.964864492416382 290.5112609863281 -2.366364479064941 289.2812805175781 -1.045955419540405 C 288.0463256835938 0.2798173725605011 286.55078125 1.318135499954224 284.8361206054688 2.040090084075928 C 283.140625 2.75399923324585 281.2376403808594 3.115999221801758 279.1799926757813 3.115999221801758 Z M 279.1799926757813 -15.62800121307373 C 278.3900756835938 -15.62800121307373 278.0344848632813 -15.35468292236328 277.7435913085938 -14.94427394866943 C 277.2315979003906 -14.22200107574463 276.9719848632813 -13.10218238830566 276.9719848632813 -11.61600112915039 C 276.9719848632813 -10.11909198760986 277.2372741699219 -8.976409912109375 277.7604064941406 -8.219682693481445 C 278.0523986816406 -7.797318935394287 278.4055786132813 -7.516000747680664 279.1799926757813 -7.516000747680664 C 279.94580078125 -7.516000747680664 280.2779846191406 -7.778637409210205 280.5657348632813 -8.202409744262695 C 281.0821228027344 -8.962955474853516 281.343994140625 -10.11145496368408 281.343994140625 -11.61600112915039 C 281.343994140625 -13.1099100112915 281.0876770019531 -14.23554611206055 280.5822143554688 -14.96163749694824 C 280.3037719726563 -15.36159133911133 279.9587097167969 -15.62800121307373 279.1799926757813 -15.62800121307373 Z M 41.35999298095703 3.115999221801758 C 39.33153915405273 3.115999221801758 37.443359375 2.75399923324585 35.7478141784668 2.040090084075928 C 34.03326797485352 1.318135499954224 32.53772354125977 0.2798628211021423 31.3027229309082 -1.045955419540405 C 30.76242637634277 -1.626015305519104 30.27348709106445 -2.260017871856689 29.8381290435791 -2.944272994995117 L 29.99604034423828 -2.485228061676025 L 30.65181350708008 -0.5789099335670471 L 28.92776679992676 0.4659991860389709 C 27.74485778808594 1.182908296585083 26.19317626953125 1.791862845420837 24.18413162231445 2.327589988708496 C 22.22226715087891 2.850726366043091 19.94781303405762 3.115999221801758 17.42399406433105 3.115999221801758 C 11.77326774597168 3.115999221801758 7.34885835647583 1.459908246994019 4.273767471313477 -1.806273579597473 C 1.238858461380005 -5.029819011688232 -0.3000051379203796 -9.559000968933105 -0.3000051379203796 -15.26800060272217 C -0.3000051379203796 -18.09836387634277 0.1598585098981857 -20.68309211730957 1.066813111305237 -22.95045471191406 C 1.983267545700073 -25.24159240722656 3.268131256103516 -27.21477317810059 4.885676860809326 -28.81518173217773 C 6.513222217559814 -30.4254093170166 8.471494674682617 -31.66018295288086 10.70608615875244 -32.4852294921875 C 12.88194942474365 -33.28863906860352 15.2606315612793 -33.69599914550781 17.7759952545166 -33.69599914550781 C 19.20926666259766 -33.69599914550781 20.54304122924805 -33.58641052246094 21.7402229309082 -33.3702278137207 C 22.89454078674316 -33.16177368164063 23.93026733398438 -32.91427230834961 24.81867599487305 -32.63463592529297 C 25.74554061889648 -32.34286499023438 26.51340484619141 -32.04241180419922 27.16604042053223 -31.71604537963867 C 27.77922248840332 -31.40950012207031 28.20853996276855 -31.17681884765625 28.51722145080566 -30.98386383056641 L 30.22290420532227 -29.91754722595215 L 29.54635810852051 -28.02313804626465 L 27.56635856628418 -22.4791374206543 L 26.5934944152832 -19.75513648986816 L 24.03903961181641 -21.11222839355469 C 23.26163101196289 -21.5252742767334 22.32481384277344 -21.88791084289551 21.25467681884766 -22.1900463104248 C 20.23490333557129 -22.47800064086914 19.03490447998047 -22.62400054931641 17.6879940032959 -22.62400054931641 C 16.90635871887207 -22.62400054931641 16.16031265258789 -22.49668312072754 15.40731334686279 -22.23477363586426 C 14.75008583068848 -22.00618171691895 14.18172168731689 -21.64618301391602 13.66972255706787 -21.13418197631836 C 13.14694976806641 -20.61141014099121 12.70904064178467 -19.8926830291748 12.3682222366333 -18.998046875 C 12.00976753234863 -18.05704689025879 11.82799530029297 -16.84645462036133 11.82799530029297 -15.40000057220459 C 11.82799530029297 -14.2051830291748 11.95772171020508 -13.08654594421387 12.21363162994385 -12.07522773742676 C 12.4372673034668 -11.19127368927002 12.77758598327637 -10.46590995788574 13.25408554077148 -9.857637405395508 C 13.6988582611084 -9.28981876373291 14.28231334686279 -8.844682693481445 15.03772258758545 -8.496773719787598 C 15.81694984436035 -8.137955665588379 16.82703971862793 -7.956000804901123 18.03999519348145 -7.956000804901123 C 18.91035842895508 -7.956000804901123 19.69013214111328 -8.006136894226074 20.3576774597168 -8.105000495910645 C 21.05613136291504 -8.208455085754395 21.67685890197754 -8.33077335357666 22.2026309967041 -8.46845531463623 C 22.68999481201172 -8.596091270446777 23.11367607116699 -8.738046646118164 23.46199417114258 -8.890409469604492 C 23.9130859375 -9.087728500366211 24.32699394226074 -9.273273468017578 24.69231224060059 -9.441864013671875 L 27.20413208007813 -10.60122776031494 L 27.58015251159668 -9.508150100708008 C 27.50284576416016 -10.19355201721191 27.4639949798584 -10.89695262908936 27.4639949798584 -11.61600112915039 C 27.4639949798584 -13.73250102996826 27.80813217163086 -15.70572853088379 28.48685836791992 -17.48086357116699 C 29.17594909667969 -19.2830924987793 30.15372276306152 -20.85259246826172 31.39303970336914 -22.14577293395996 C 32.63781356811523 -23.44463729858398 34.13258743286133 -24.46690940856934 35.83581161499023 -25.18409156799316 C 37.53140258789063 -25.89800071716309 39.38999557495117 -26.26000022888184 41.35999298095703 -26.26000022888184 C 43.35922241210938 -26.26000022888184 45.23263168334961 -25.89800071716309 46.92817687988281 -25.18409156799316 C 48.63722229003906 -24.46445465087891 50.12881469726563 -23.43777275085449 51.36154174804688 -22.13254547119141 C 52.58522033691406 -20.83691024780273 53.54653930664063 -19.26509094238281 54.21872329711914 -17.46077346801758 C 54.87781143188477 -15.69172763824463 55.21199417114258 -13.72522830963135 55.21199417114258 -11.61600112915039 C 55.21199417114258 -9.524318695068359 54.89840316772461 -7.566546440124512 54.27999496459961 -5.797137260437012 C 53.63958740234375 -3.964864492416382 52.69126892089844 -2.366364479064941 51.46126937866211 -1.045955419540405 C 50.22631454467773 0.2798173725605011 48.73076629638672 1.318135499954224 47.01613235473633 2.040090084075928 C 45.32063293457031 2.75399923324585 43.41763305664063 3.115999221801758 41.35999298095703 3.115999221801758 Z M 41.35999298095703 -15.62800121307373 C 40.57008743286133 -15.62800121307373 40.21449661254883 -15.35463714599609 39.92354202270508 -14.94422817230225 C 39.41158676147461 -14.22200107574463 39.15199661254883 -13.10218238830566 39.15199661254883 -11.61600112915039 C 39.15199661254883 -10.11909198760986 39.41726684570313 -8.976409912109375 39.94040298461914 -8.219682693481445 C 40.23240280151367 -7.797318935394287 40.58558654785156 -7.516000747680664 41.35999298095703 -7.516000747680664 C 42.12585830688477 -7.516000747680664 42.4579963684082 -7.778637409210205 42.74572372436523 -8.202364921569824 C 43.26213073730469 -8.962909698486328 43.52399444580078 -10.11141014099121 43.52399444580078 -11.61600112915039 C 43.52399444580078 -13.10995578765869 43.26772308349609 -14.23559188842773 42.76226806640625 -14.96159172058105 C 42.48376846313477 -15.36159133911133 42.13876724243164 -15.62800121307373 41.35999298095703 -15.62800121307373 Z M 245.5639953613281 3.02799916267395 C 243.4246368408203 3.02799916267395 241.6591796875 2.728726387023926 240.1666717529297 2.113090038299561 C 238.6100463867188 1.470953702926636 237.3308563232422 0.5432718992233276 236.3647155761719 -0.644273579120636 C 235.4186248779297 -1.807137131690979 234.7547607421875 -3.210864543914795 234.3915863037109 -4.816410064697266 C 234.0733642578125 -6.223319053649902 233.9119873046875 -7.785637378692627 233.9119873046875 -9.460000991821289 L 233.9119873046875 -28.90800094604492 L 233.9119873046875 -31.03754615783691 L 236.0144500732422 -31.37618255615234 L 242.5704498291016 -32.43218231201172 L 245.4680023193359 -32.89891052246094 L 245.4680023193359 -29.9640007019043 L 245.4680023193359 -25.64400100708008 L 250.843994140625 -25.64400100708008 L 253.343994140625 -25.64400100708008 L 253.343994140625 -23.14400100708008 L 253.343994140625 -17.68800163269043 L 253.343994140625 -15.18800067901611 L 250.843994140625 -15.18800067901611 L 245.4680023193359 -15.18800067901611 L 245.4680023193359 -9.548001289367676 C 245.4680023193359 -8.720000267028809 245.5837249755859 -8.040234565734863 245.7954254150391 -7.614141941070557 C 245.8987579345703 -7.578126907348633 246.1457366943359 -7.516000747680664 246.6199951171875 -7.516000747680664 C 247.1754455566406 -7.516000747680664 247.7620849609375 -7.56981897354126 248.3635406494141 -7.675955295562744 C 248.9529876708984 -7.780000686645508 249.4880828857422 -7.922728061676025 249.9539489746094 -8.10018253326416 L 252.7676239013672 -9.172137260437012 L 253.3040008544922 -6.209364414215088 L 253.6679992675781 -4.198697566986084 L 253.6679992675781 -23.14400100708008 L 253.6679992675781 -25.64400100708008 L 254.4963073730469 -25.64400100708008 C 253.5199127197266 -26.75351715087891 253.0079956054688 -28.18664741516113 253.0079956054688 -29.83200073242188 C 253.0079956054688 -31.7478199005127 253.7020874023438 -33.37595367431641 255.0152740478516 -34.54045486450195 C 256.2424926757813 -35.6287727355957 257.7669982910156 -36.20400238037109 259.4239807128906 -36.20400238037109 C 261.0809936523438 -36.20400238037109 262.6054992675781 -35.6287727355957 263.8327331542969 -34.54045486450195 C 265.1459045410156 -33.37595367431641 265.8399963378906 -31.7478199005127 265.8399963378906 -29.83200073242188 C 265.8399963378906 -28.18664741516113 265.3280639648438 -26.75351715087891 264.3516845703125 -25.64400100708008 L 265.2239990234375 -25.64400100708008 L 265.2239990234375 -23.14400100708008 L 265.2239990234375 -8.239746307481255e-07 L 265.2239990234375 2.499999284744263 L 262.7239990234375 2.499999284744263 L 256.1679992675781 2.499999284744263 L 253.6679992675781 2.499999284744263 L 253.6679992675781 1.265435814857483 L 252.7112731933594 1.655226469039917 C 251.8084564208984 2.023044586181641 250.8010406494141 2.342817306518555 249.717041015625 2.605635643005371 C 248.544677734375 2.889817476272583 247.1862182617188 3.02799916267395 245.5639953613281 3.02799916267395 Z M 181.7200012207031 3.02799916267395 C 179.4410858154297 3.02799916267395 177.4750823974609 2.700181007385254 175.8765869140625 2.053590059280396 C 174.1750793457031 1.365362763404846 172.7900390625 0.3634537160396576 171.7598571777344 -0.9242280721664429 C 170.771728515625 -2.159409999847412 170.063720703125 -3.632409811019897 169.6555023193359 -5.302364349365234 C 169.2869110107422 -6.810455322265625 169.0999908447266 -8.475728034973145 169.0999908447266 -10.25200080871582 L 169.0999908447266 -23.14400100708008 L 169.0999908447266 -25.64400100708008 L 171.5999908447266 -25.64400100708008 L 178.1559906005859 -25.64400100708008 L 180.6559906005859 -25.64400100708008 L 180.6559906005859 -23.14400100708008 L 180.6559906005859 -11.04400062561035 C 180.6559906005859 -8.741273880004883 181.0277252197266 -7.936182498931885 181.1416778564453 -7.744318962097168 C 181.1708526611328 -7.695091724395752 181.4560852050781 -7.560000896453857 182.1159973144531 -7.560000896453857 C 182.2469787597656 -7.560000896453857 182.3817901611328 -7.562092781066895 182.5199890136719 -7.566253185272217 L 182.5199890136719 -23.14400100708008 L 182.5199890136719 -25.64400100708008 L 185.0199890136719 -25.64400100708008 L 191.5759887695313 -25.64400100708008 L 194.0759887695313 -25.64400100708008 L 194.0759887695313 -23.14400100708008 L 194.0759887695313 -0.7920008301734924 L 194.0759887695313 1.08695375919342 L 192.2711791992188 1.609408259391785 C 191.0453643798828 1.964271903038025 189.535400390625 2.281499147415161 187.6549987792969 2.579226493835449 C 185.7743988037109 2.876999139785767 183.777587890625 3.02799916267395 181.7200012207031 3.02799916267395 Z M 161.2159881591797 3.02799916267395 C 159.0766296386719 3.02799916267395 157.3111724853516 2.728726387023926 155.8186798095703 2.113090038299561 C 154.2620391845703 1.470953702926636 152.9828643798828 0.5432718992233276 152.0167236328125 -0.644273579120636 C 151.0706329345703 -1.807137131690979 150.4067687988281 -3.210864543914795 150.0435791015625 -4.816410064697266 C 149.7253570556641 -6.223591804504395 149.5639953613281 -7.785864353179932 149.5639953613281 -9.460000991821289 L 149.5639953613281 -28.90800094604492 L 149.5639953613281 -31.03754615783691 L 151.6664428710938 -31.37618255615234 L 158.2224426269531 -32.43218231201172 L 161.1199951171875 -32.89891052246094 L 161.1199951171875 -29.9640007019043 L 161.1199951171875 -25.64400100708008 L 166.4960021972656 -25.64400100708008 L 168.9960021972656 -25.64400100708008 L 168.9960021972656 -23.14400100708008 L 168.9960021972656 -17.68800163269043 L 168.9960021972656 -15.18800067901611 L 166.4960021972656 -15.18800067901611 L 161.1199951171875 -15.18800067901611 L 161.1199951171875 -9.548001289367676 C 161.1199951171875 -8.720000267028809 161.2357330322266 -8.040234565734863 161.4474334716797 -7.614141941070557 C 161.5507507324219 -7.578127384185791 161.7977447509766 -7.516000747680664 162.2719879150391 -7.516000747680664 C 162.8274536132813 -7.516000747680664 163.4140930175781 -7.56981897354126 164.0155334472656 -7.675955295562744 C 164.6049957275391 -7.780000686645508 165.1400909423828 -7.922728061676025 165.60595703125 -8.10018253326416 L 168.4196319580078 -9.172137260437012 L 168.9559936523438 -6.209364414215088 L 169.8799896240234 -1.105364441871643 L 170.2412719726563 0.8900901079177856 L 168.3632659912109 1.655226469039917 C 167.46044921875 2.023044586181641 166.4530334472656 2.342817306518555 165.3690338134766 2.605635643005371 C 164.1966705322266 2.889817476272583 162.8382263183594 3.02799916267395 161.2159881591797 3.02799916267395 Z M 220.7039947509766 2.983999252319336 C 219.0371704101563 2.983999252319336 217.4895477294922 2.831635475158691 216.1041259765625 2.531226396560669 C 214.5757751464844 2.199771881103516 213.2210388183594 1.635499119758606 212.0775451660156 0.8541355133056641 C 211.1785888671875 0.2398551404476166 210.4250946044922 -0.5173829793930054 209.8273162841797 -1.405729293823242 L 209.4403533935547 0.8607264757156372 L 209.0797729492188 2.972635507583618 L 206.9375457763672 2.939681053161621 C 204.7630920410156 2.906271934509277 203.0073089599609 2.66572642326355 201.5699462890625 2.204362869262695 C 200.0054473876953 1.702226400375366 198.7203063964844 0.9557719230651855 197.7502746582031 -0.01418264210224152 C 196.7415008544922 -1.023000836372375 196.0472259521484 -2.254682540893555 195.6868133544922 -3.675091743469238 C 195.3876800537109 -4.854137420654297 195.2359924316406 -6.178682804107666 195.2359924316406 -7.612000942230225 L 195.2359924316406 -33.0880012512207 L 195.2359924316406 -35.21754455566406 L 197.3384552001953 -35.55618286132813 L 203.8944549560547 -36.6121826171875 L 206.7919921875 -37.07891082763672 L 206.7919921875 -34.14400100708008 L 206.7919921875 -8.932001113891602 C 206.7919921875 -8.502227783203125 206.8219909667969 -8.124319076538086 206.8811798095703 -7.808728218078613 C 206.8894805908203 -7.764505386352539 206.8980865478516 -7.732380867004395 206.9050903320313 -7.710379600524902 C 206.9284057617188 -7.696990013122559 206.9625854492188 -7.679145812988281 207.0099945068359 -7.65841007232666 C 207.0833129882813 -7.626364231109619 207.3776245117188 -7.5175461769104 208.084716796875 -7.465182781219482 L 208.2642822265625 -7.451875686645508 C 208.3084259033203 -9.10682201385498 208.6931915283203 -10.57194423675537 209.4096832275391 -11.8112735748291 C 210.0045166015625 -12.84018707275391 210.7692718505859 -13.71373271942139 211.6899108886719 -14.41746711730957 L 211.2827606201172 -16.98904609680176 L 210.4467620849609 -22.26904678344727 L 210.1075439453125 -24.41159248352051 L 212.1808624267578 -25.0494556427002 C 212.62353515625 -25.18568229675293 213.1478576660156 -25.32322883605957 213.7838592529297 -25.47000122070313 C 214.4141693115234 -25.61545562744141 215.1059112548828 -25.74581909179688 215.8398132324219 -25.85754585266113 C 216.5551300048828 -25.96640968322754 217.317626953125 -26.0607738494873 218.1061248779297 -26.13809204101563 C 218.9314880371094 -26.21900177001953 219.7759552001953 -26.26000022888184 220.6159973144531 -26.26000022888184 C 222.8489532470703 -26.26000022888184 224.6959991455078 -26.00036430358887 226.2626800537109 -25.46627426147461 C 227.9351806640625 -24.89609146118164 229.318359375 -24.04159164428711 230.3737182617188 -22.92645454406738 C 231.4321746826172 -21.80809211730957 232.1874542236328 -20.44627380371094 232.6184997558594 -18.87891006469727 C 232.9990386962891 -17.4952278137207 233.1920013427734 -15.95463752746582 233.1920013427734 -14.30000114440918 L 233.1920013427734 -0.6600008010864258 L 233.1920013427734 1.352271914482117 L 231.2261810302734 1.782271862030029 C 230.2374420166016 1.998544573783875 228.9162292480469 2.24377179145813 227.1869964599609 2.531999111175537 C 225.3874969482422 2.831908226013184 223.2062683105469 2.983999252319336 220.7039947509766 2.983999252319336 Z M 219.77294921875 -7.242759704589844 C 220.0129241943359 -7.16294002532959 220.4367065429688 -7.076000690460205 221.1439971923828 -7.076000690460205 C 221.4002075195313 -7.076000690460205 221.6526184082031 -7.078507900238037 221.8999938964844 -7.083484649658203 L 221.8999938964844 -7.486717700958252 C 221.8524780273438 -7.48757266998291 221.8058013916016 -7.488000869750977 221.7599945068359 -7.488000869750977 C 221.258544921875 -7.488000869750977 220.7864074707031 -7.458546161651611 220.3567199707031 -7.400500774383545 C 220.1264038085938 -7.369383335113525 219.9262847900391 -7.318686008453369 219.7726593017578 -7.252866268157959 C 219.7727508544922 -7.249449729919434 219.7728424072266 -7.246078014373779 219.77294921875 -7.242759704589844 Z M 136.3559875488281 2.983999252319336 C 134.6891784667969 2.983999252319336 133.1415405273438 2.831635475158691 131.7561340332031 2.531226396560669 C 130.2277679443359 2.199771881103516 128.873046875 1.635499119758606 127.7295379638672 0.8541355133056641 C 126.4894485473633 0.006726448889821768 125.5261764526367 -1.112728118896484 124.8664932250977 -2.473273515701294 C 124.2331314086914 -3.779637098312378 123.911994934082 -5.345682621002197 123.911994934082 -7.128000736236572 C 123.911994934082 -8.915955543518066 124.2987670898438 -10.49159145355225 125.0616302490234 -11.81118297576904 C 125.6565093994141 -12.84016799926758 126.4212646484375 -13.71372890472412 127.341911315918 -14.41746616363525 L 126.9347686767578 -16.98904609680176 L 126.6360549926758 -18.87566184997559 L 126.2219009399414 -16.83804702758789 L 125.7012710571289 -14.27663707733154 L 123.1655883789063 -14.91068267822266 C 122.6172637939453 -15.04777336120605 121.9576797485352 -15.19500064849854 121.2050399780273 -15.3483190536499 C 120.5805435180664 -15.47550106048584 119.8897705078125 -15.54000091552734 119.1519927978516 -15.54000091552734 C 119.0679092407227 -15.54000091552734 118.977165222168 -15.53767108917236 118.879997253418 -15.53303050994873 L 118.879997253418 -8.239746307481255e-07 L 118.879997253418 2.499999284744263 L 116.379997253418 2.499999284744263 L 109.8239974975586 2.499999284744263 L 107.3239974975586 2.499999284744263 L 107.3239974975586 -8.239746307481255e-07 L 107.3239974975586 -21.91200065612793 L 107.3239974975586 -23.68568229675293 L 108.9981307983398 -24.27163696289063 C 110.2529983520508 -24.71086502075195 111.7417678833008 -25.12909126281738 113.4230880737305 -25.51472854614258 C 115.1973114013672 -25.92168235778809 117.1839981079102 -26.12800025939941 119.327995300293 -26.12800025939941 C 119.7574005126953 -26.12800025939941 120.2466735839844 -26.10322761535645 120.8237228393555 -26.05231857299805 C 121.3677673339844 -26.00431823730469 121.9195404052734 -25.93940925598145 122.4636764526367 -25.85940933227539 C 123.0069046020508 -25.7795467376709 123.5575408935547 -25.68236351013184 124.1002197265625 -25.57063674926758 C 124.7620849609375 -25.43431854248047 125.3291320800781 -25.26590919494629 125.8336334228516 -25.05563735961914 L 126.6912155151367 -24.69827270507813 L 127.8329010009766 -25.04950141906738 C 128.2757720947266 -25.18572807312012 128.8000793457031 -25.32327270507813 129.4358520507813 -25.47000122070313 C 130.0662689208984 -25.61545562744141 130.7579956054688 -25.74586486816406 131.4918518066406 -25.85754585266113 C 132.2071380615234 -25.96640968322754 132.9696350097656 -26.0607738494873 133.7581329345703 -26.13809204101563 C 134.58349609375 -26.21900177001953 135.4279479980469 -26.26000022888184 136.2679901123047 -26.26000022888184 C 138.5009918212891 -26.26000022888184 140.3480377197266 -26.00036430358887 141.9146728515625 -25.46627426147461 C 143.5871734619141 -24.89609146118164 144.9703521728516 -24.04159164428711 146.0257263183594 -22.92645454406738 C 147.084228515625 -21.80809211730957 147.8394927978516 -20.44627380371094 148.2705383300781 -18.87886428833008 C 148.6510467529297 -17.4952278137207 148.843994140625 -15.95463752746582 148.843994140625 -14.30000114440918 L 148.843994140625 -0.6600008010864258 L 148.843994140625 1.352271914482117 L 146.8782196044922 1.782271862030029 C 145.8896789550781 1.998499155044556 144.5684051513672 2.243726491928101 142.8389892578125 2.531999111175537 C 141.0394897460938 2.831908226013184 138.8582611083984 2.983999252319336 136.3559875488281 2.983999252319336 Z M 135.4249572753906 -7.242773532867432 C 135.6649322509766 -7.162961483001709 136.0887756347656 -7.076000690460205 136.7959899902344 -7.076000690460205 C 137.0522155761719 -7.076000690460205 137.3046264648438 -7.078507900238037 137.552001953125 -7.083484649658203 L 137.552001953125 -7.486717700958252 C 137.5044860839844 -7.48757266998291 137.4578094482422 -7.488000869750977 137.4119873046875 -7.488000869750977 C 136.9105377197266 -7.488000869750977 136.4384002685547 -7.458546161651611 136.0087280273438 -7.400500774383545 C 135.7783660888672 -7.369383335113525 135.5782775878906 -7.318687438964844 135.4246520996094 -7.252867221832275 C 135.4247436523438 -7.24945068359375 135.4248504638672 -7.246091842651367 135.4249572753906 -7.242773532867432 Z" stroke="none"/><path d="M 91.87199401855469 8.271999359130859 C 95.89069366455078 8.271999359130859 98.86069488525391 7.355349063873291 100.7819976806641 5.521999359130859 C 102.7033462524414 3.68864917755127 103.6639938354492 0.8799991607666016 103.6639938354492 -2.904000759124756 L 103.6639938354492 -22.35200119018555 C 103.0773468017578 -22.52799987792969 102.4099960327148 -22.69665145874023 101.661994934082 -22.85800170898438 C 100.9139938354492 -23.01935005187988 100.1293411254883 -23.15865135192871 99.30799865722656 -23.2760009765625 C 98.4866943359375 -23.39335060119629 97.65799713134766 -23.48865127563477 96.82199859619141 -23.5620002746582 C 95.98599243164063 -23.63535118103027 95.1719970703125 -23.67200088500977 94.37999725341797 -23.67200088500977 C 92.53199768066406 -23.67200088500977 90.87469482421875 -23.40065002441406 89.40799713134766 -22.85800170898438 C 87.94134521484375 -22.31535148620605 86.70199584960938 -21.54535102844238 85.68999481201172 -20.54800033569336 C 84.67799377441406 -19.55065155029297 83.90799713134766 -18.35535049438477 83.37999725341797 -16.96199989318848 C 82.85199737548828 -15.56865119934082 82.58799743652344 -14.0213508605957 82.58799743652344 -12.32000064849854 C 82.58799743652344 -8.917350769042969 83.43869781494141 -6.27000093460083 85.13999176025391 -4.378000736236572 C 86.84134674072266 -2.486000776290894 89.29064178466797 -1.540000796318054 92.48799133300781 -1.540000796318054 C 93.36799621582031 -1.540000796318054 94.18199157714844 -1.620650768280029 94.92999267578125 -1.782000780105591 C 95.67799377441406 -1.943350791931152 96.40399169921875 -2.185350894927979 97.10799407958984 -2.50800085067749 L 97.10799407958984 -1.672000765800476 C 97.10799407958984 -0.3813508152961731 96.71934509277344 0.674649178981781 95.94199371337891 1.495999217033386 C 95.16464233398438 2.317349195480347 93.83734130859375 2.727999210357666 91.95999145507813 2.727999210357666 C 90.52269744873047 2.727999210357666 89.23934173583984 2.610649108886719 88.10999298095703 2.375999212265015 C 86.98069763183594 2.141349077224731 85.90264129638672 1.818649172782898 84.87599182128906 1.407999157905579 L 83.73199462890625 6.907999038696289 C 84.9346923828125 7.318649291992188 86.23999786376953 7.648649215698242 87.64799499511719 7.897999286651611 C 89.05599212646484 8.14734935760498 90.46399688720703 8.271999359130859 91.87199401855469 8.271999359130859 M 94.42399597167969 -18.39200019836426 C 95.01064300537109 -18.39200019836426 95.52399444580078 -18.3700008392334 95.96399688720703 -18.32600021362305 C 96.40399169921875 -18.28200149536133 96.78534698486328 -18.23064994812012 97.10799407958984 -18.17200088500977 L 97.10799407958984 -7.700000762939453 C 96.69734191894531 -7.46535062789917 96.19869232177734 -7.260000705718994 95.61199188232422 -7.084000587463379 C 95.02534484863281 -6.908000946044922 94.39469146728516 -6.820000648498535 93.71999359130859 -6.820000648498535 C 90.75734710693359 -6.820000648498535 89.27599334716797 -8.653350830078125 89.27599334716797 -12.32000064849854 C 89.27599334716797 -14.08000087738037 89.70134735107422 -15.53200054168701 90.55199432373047 -16.67600059509277 C 91.40269470214844 -17.82000160217285 92.69334411621094 -18.39200019836426 94.42399597167969 -18.39200019836426 M 328.1080017089844 0.615999162197113 C 331.2466430664063 0.615999162197113 333.6739807128906 0.03059917688369751 335.3899841308594 -1.140200853347778 C 337.1059875488281 -2.311050891876221 337.9639892578125 -4.037900924682617 337.9639892578125 -6.320850849151611 C 337.9639892578125 -7.286600589752197 337.85400390625 -8.135300636291504 337.6340026855469 -8.867051124572754 C 337.4140014648438 -9.598751068115234 337.0326538085938 -10.26460075378418 336.489990234375 -10.86455059051514 C 335.9472961425781 -11.46450042724609 335.2066345214844 -12.02325057983398 334.2680053710938 -12.54070091247559 C 333.329345703125 -13.05815124511719 332.141357421875 -13.58315086364746 330.7040100097656 -14.11575126647949 C 330 -14.38160037994385 329.420654296875 -14.62540054321289 328.9660034179688 -14.84725093841553 C 328.5112915039063 -15.06910037994385 328.1520080566406 -15.27535057067871 327.8880004882813 -15.4660005569458 C 327.6239318847656 -15.65665054321289 327.447998046875 -15.85465049743652 327.3599853515625 -16.06000137329102 C 327.2720031738281 -16.26535034179688 327.2279968261719 -16.5 327.2279968261719 -16.76399993896484 C 327.2279968261719 -17.90800094604492 328.254638671875 -18.48000144958496 330.3079833984375 -18.48000144958496 C 331.4226379394531 -18.48000144958496 332.4273071289063 -18.37735176086426 333.3219909667969 -18.17200088500977 C 334.2166442871094 -17.96665000915527 335.0453491210938 -17.73200035095215 335.8079833984375 -17.4680004119873 L 336.9519958496094 -22.57200050354004 C 336.1893005371094 -22.8653507232666 335.1626586914063 -23.13665008544922 333.8720092773438 -23.38600158691406 C 332.581298828125 -23.63535118103027 331.2319946289063 -23.76000022888184 329.8240051269531 -23.76000022888184 C 327.0079956054688 -23.76000022888184 324.7933044433594 -23.12935066223145 323.1799926757813 -21.86800003051758 C 321.566650390625 -20.60665130615234 320.760009765625 -18.89065170288086 320.760009765625 -16.72000122070313 C 320.760009765625 -15.60535049438477 320.9213562011719 -14.65200042724609 321.2439880371094 -13.86000061035156 C 321.566650390625 -13.06800079345703 322.0213012695313 -12.38600063323975 322.6080017089844 -11.81400108337402 C 323.1946411132813 -11.24200057983398 323.906005859375 -10.75065040588379 324.7420043945313 -10.34000110626221 C 325.5780029296875 -9.929350852966309 326.5093078613281 -9.533350944519043 327.5359802246094 -9.152000427246094 C 328.8559875488281 -8.653350830078125 329.8386535644531 -8.206001281738281 330.4840087890625 -7.810000896453857 C 331.1293029785156 -7.414000988006592 331.4519958496094 -6.952000617980957 331.4519958496094 -6.42400074005127 C 331.4519958496094 -5.749351024627686 331.20263671875 -5.294651031494141 330.7040100097656 -5.060000896453857 C 330.2053527832031 -4.825350761413574 329.3546447753906 -4.708000659942627 328.1520080566406 -4.708000659942627 C 327.0079956054688 -4.708000659942627 325.8493041992188 -4.832650661468506 324.6759948730469 -5.082000732421875 C 323.5026550292969 -5.331350803375244 322.358642578125 -5.676000595092773 321.2439880371094 -6.116000652313232 L 320.1439819335938 -0.7920008301734924 C 320.6719970703125 -0.5573508143424988 321.6179809570313 -0.2640008330345154 322.9819946289063 0.08799917250871658 C 324.3460083007813 0.4399991631507874 326.0546569824219 0.615999162197113 328.1080017089844 0.615999162197113 M 279.1799926757813 0.615999162197113 C 280.91064453125 0.615999162197113 282.47265625 0.3226491808891296 283.8659973144531 -0.2640008330345154 C 285.2593383789063 -0.8506508469581604 286.4546508789063 -1.679350852966309 287.4519958496094 -2.750000715255737 C 288.4493408203125 -3.820650815963745 289.2120056152344 -5.111351013183594 289.739990234375 -6.622000694274902 C 290.2680053710938 -8.132650375366211 290.531982421875 -9.797350883483887 290.531982421875 -11.61600112915039 C 290.531982421875 -13.43465042114258 290.2533569335938 -15.09200096130371 289.6959838867188 -16.5880012512207 C 289.1386413574219 -18.0840015411377 288.3613586425781 -19.36000061035156 287.3639831542969 -20.41600036621094 C 286.3666381835938 -21.47200012207031 285.1713562011719 -22.29335021972656 283.7779846191406 -22.88000106811523 C 282.3846435546875 -23.46665000915527 280.8519897460938 -23.76000022888184 279.1799926757813 -23.76000022888184 C 277.537353515625 -23.76000022888184 276.0193481445313 -23.46665000915527 274.6260070800781 -22.88000106811523 C 273.2326354980469 -22.29335021972656 272.0299987792969 -21.47200012207031 271.0180053710938 -20.41600036621094 C 270.0059814453125 -19.36000061035156 269.2139892578125 -18.0840015411377 268.6419982910156 -16.5880012512207 C 268.0700073242188 -15.09200096130371 267.7839965820313 -13.43465042114258 267.7839965820313 -11.61600112915039 C 267.7839965820313 -9.797350883483887 268.0626525878906 -8.132650375366211 268.6199951171875 -6.622000694274902 C 269.1773376464844 -5.111351013183594 269.9546508789063 -3.820650815963745 270.9519958496094 -2.750000715255737 C 271.9493408203125 -1.679350852966309 273.1446533203125 -0.8506508469581604 274.5379943847656 -0.2640008330345154 C 275.9313354492188 0.3226491808891296 277.4786987304688 0.615999162197113 279.1799926757813 0.615999162197113 M 279.1799926757813 -18.12800025939941 C 280.6759948730469 -18.12800025939941 281.8273010253906 -17.54865074157715 282.6340026855469 -16.39000129699707 C 283.4406433105469 -15.23135089874268 283.843994140625 -13.64000129699707 283.843994140625 -11.61600112915039 C 283.843994140625 -9.592000961303711 283.4406433105469 -7.986001014709473 282.6340026855469 -6.798000812530518 C 281.8273010253906 -5.610000610351563 280.6759948730469 -5.016000747680664 279.1799926757813 -5.016000747680664 C 277.6839904785156 -5.016000747680664 276.5252990722656 -5.610000610351563 275.7040100097656 -6.798000812530518 C 274.8826599121094 -7.986001014709473 274.4719848632813 -9.592000961303711 274.4719848632813 -11.61600112915039 C 274.4719848632813 -13.64000129699707 274.8826599121094 -15.23135089874268 275.7040100097656 -16.39000129699707 C 276.5252990722656 -17.54865074157715 277.6839904785156 -18.12800025939941 279.1799926757813 -18.12800025939941 M 41.35999298095703 0.615999162197113 C 43.09069442749023 0.615999162197113 44.65269470214844 0.3226491808891296 46.04599380493164 -0.2640008330345154 C 47.43934631347656 -0.8506508469581604 48.63469314575195 -1.679350852966309 49.63199615478516 -2.750000715255737 C 50.62934494018555 -3.820650815963745 51.39199447631836 -5.111351013183594 51.91999435424805 -6.622000694274902 C 52.44799423217773 -8.132650375366211 52.71199417114258 -9.797350883483887 52.71199417114258 -11.61600112915039 C 52.71199417114258 -13.43465042114258 52.43334579467773 -15.09200096130371 51.87599563598633 -16.5880012512207 C 51.31869506835938 -18.0840015411377 50.54134368896484 -19.36000061035156 49.54399490356445 -20.41600036621094 C 48.54664611816406 -21.47200012207031 47.35134506225586 -22.29335021972656 45.9579963684082 -22.88000106811523 C 44.56469345092773 -23.46665000915527 43.0319938659668 -23.76000022888184 41.35999298095703 -23.76000022888184 C 39.71734619140625 -23.76000022888184 38.19934463500977 -23.46665000915527 36.80599594116211 -22.88000106811523 C 35.41264343261719 -22.29335021972656 34.20999526977539 -21.47200012207031 33.19799423217773 -20.41600036621094 C 32.18599319458008 -19.36000061035156 31.39399528503418 -18.0840015411377 30.82199478149414 -16.5880012512207 C 30.2499942779541 -15.09200096130371 29.9639949798584 -13.43465042114258 29.9639949798584 -11.61600112915039 C 29.9639949798584 -9.797350883483887 30.24264526367188 -8.132650375366211 30.79999542236328 -6.622000694274902 C 31.35734558105469 -5.111351013183594 32.13469314575195 -3.820650815963745 33.13199615478516 -2.750000715255737 C 34.12934494018555 -1.679350852966309 35.32464599609375 -0.8506508469581604 36.71799468994141 -0.2640008330345154 C 38.11134338378906 0.3226491808891296 39.65864562988281 0.615999162197113 41.35999298095703 0.615999162197113 M 41.35999298095703 -18.12800025939941 C 42.85599517822266 -18.12800025939941 44.00734329223633 -17.54865074157715 44.81399536132813 -16.39000129699707 C 45.62069320678711 -15.23135089874268 46.02399444580078 -13.64000129699707 46.02399444580078 -11.61600112915039 C 46.02399444580078 -9.592000961303711 45.62069320678711 -7.986001014709473 44.81399536132813 -6.798000812530518 C 44.00734329223633 -5.610000610351563 42.85599517822266 -5.016000747680664 41.35999298095703 -5.016000747680664 C 39.86399459838867 -5.016000747680664 38.70534515380859 -5.610000610351563 37.88399505615234 -6.798000812530518 C 37.06269454956055 -7.986001014709473 36.65199661254883 -9.592000961303711 36.65199661254883 -11.61600112915039 C 36.65199661254883 -13.64000129699707 37.06269454956055 -15.23135089874268 37.88399505615234 -16.39000129699707 C 38.70534515380859 -17.54865074157715 39.86399459838867 -18.12800025939941 41.35999298095703 -18.12800025939941 M 17.42399406433105 0.615999162197113 C 19.7413444519043 0.615999162197113 21.77999496459961 0.3813491761684418 23.53999519348145 -0.0880008265376091 C 25.29999542236328 -0.5573508143424988 26.66399574279785 -1.085350871086121 27.63199424743652 -1.672000765800476 L 25.73999404907227 -7.172000885009766 C 25.35869407653809 -6.99600076675415 24.93334579467773 -6.805350780487061 24.4639949798584 -6.600000858306885 C 23.99464416503906 -6.394650936126709 23.45199394226074 -6.211350917816162 22.83599472045898 -6.050000667572021 C 22.21999549865723 -5.888650894165039 21.51599502563477 -5.749351024627686 20.72399520874023 -5.632000923156738 C 19.9319953918457 -5.514650821685791 19.03734397888184 -5.456000804901123 18.03999519348145 -5.456000804901123 C 16.45599555969238 -5.456000804901123 15.1066951751709 -5.712650775909424 13.99199485778809 -6.226000785827637 C 12.87734508514404 -6.73935079574585 11.97534465789795 -7.436000823974609 11.28599452972412 -8.316000938415527 C 10.59669494628906 -9.196001052856445 10.09799480438232 -10.24465084075928 9.789995193481445 -11.46200084686279 C 9.48199462890625 -12.67935085296631 9.327995300292969 -13.99200057983398 9.327995300292969 -15.40000057220459 C 9.327995300292969 -17.16000175476074 9.562694549560547 -18.6560001373291 10.03199481964111 -19.88800048828125 C 10.50134468078613 -21.1200008392334 11.12469482421875 -22.1246509552002 11.9019947052002 -22.90200042724609 C 12.67934513092041 -23.67934989929199 13.57399463653564 -24.2440013885498 14.58599472045898 -24.59600067138672 C 15.59799480438232 -24.94799995422363 16.63199424743652 -25.12400054931641 17.6879940032959 -25.12400054931641 C 19.27199554443359 -25.12400054931641 20.68734550476074 -24.94799995422363 21.93399429321289 -24.59600067138672 C 23.18069458007813 -24.2440013885498 24.27334403991699 -23.81865119934082 25.21199417114258 -23.32000160217285 L 27.19199562072754 -28.86400032043457 C 26.95734405517578 -29.01065063476563 26.57599449157715 -29.21600151062012 26.04799461364746 -29.48000144958496 C 25.51999473571777 -29.7440013885498 24.85999488830566 -30.00065040588379 24.06799507141113 -30.25 C 23.2759952545166 -30.49935150146484 22.35199546813965 -30.71935081481934 21.29599571228027 -30.91000175476074 C 20.23999404907227 -31.10065078735352 19.06669425964355 -31.19600105285645 17.7759952545166 -31.19600105285645 C 15.54664516448975 -31.19600105285645 13.47869491577148 -30.84400177001953 11.57199478149414 -30.14000129699707 C 9.665345191955566 -29.43600082397461 8.02269458770752 -28.40200042724609 6.643994808197021 -27.03800010681152 C 5.265345096588135 -25.67400169372559 4.179995059967041 -24.00200080871582 3.387994766235352 -22.02200126647949 C 2.59599494934082 -20.04200172424316 2.199994802474976 -17.79065132141113 2.199994802474976 -15.26800060272217 C 2.199994802474976 -10.19335079193115 3.497994899749756 -6.277350902557373 6.093995094299316 -3.52000093460083 C 8.689994812011719 -0.7626508474349976 12.46669483184814 0.615999162197113 17.42399406433105 0.615999162197113 M 346.0599975585938 0.571999192237854 C 347.1159973144531 0.571999192237854 348.0619812011719 0.2199991792440414 348.8979797363281 -0.4840008318424225 C 349.7340087890625 -1.188000798225403 350.1520080566406 -2.185350894927979 350.1520080566406 -3.476000785827637 C 350.1520080566406 -4.766650676727295 349.7340087890625 -5.76400089263916 348.8979797363281 -6.468000888824463 C 348.0619812011719 -7.172000885009766 347.1159973144531 -7.524000644683838 346.0599975585938 -7.524000644683838 C 345.0039978027344 -7.524000644683838 344.0579833984375 -7.172000885009766 343.2219848632813 -6.468000888824463 C 342.385986328125 -5.76400089263916 341.9679870605469 -4.766650676727295 341.9679870605469 -3.476000785827637 C 341.9679870605469 -2.185350894927979 342.385986328125 -1.188000798225403 343.2219848632813 -0.4840008318424225 C 344.0579833984375 0.2199991792440414 345.0039978027344 0.571999192237854 346.0599975585938 0.571999192237854 M 245.5639953613281 0.5279991626739502 C 246.9720001220703 0.5279991626739502 248.1599884033203 0.4106491804122925 249.1279907226563 0.17599917948246 C 250.0959930419922 -0.05865082517266273 250.9759979248047 -0.3373508155345917 251.7679901123047 -0.6600008010864258 L 250.843994140625 -5.76400089263916 C 250.2279968261719 -5.529350757598877 249.5459899902344 -5.346000671386719 248.7979888916016 -5.214000701904297 C 248.0499877929688 -5.082000732421875 247.3239898681641 -5.016000747680664 246.6199951171875 -5.016000747680664 C 245.1533508300781 -5.016000747680664 244.1779937744141 -5.426651000976563 243.6940002441406 -6.248000621795654 C 243.2099914550781 -7.069350719451904 242.9680023193359 -8.169350624084473 242.9680023193359 -9.548001289367676 L 242.9680023193359 -17.68800163269043 L 250.843994140625 -17.68800163269043 L 250.843994140625 -23.14400100708008 L 242.9680023193359 -23.14400100708008 L 242.9680023193359 -29.9640007019043 L 236.4119873046875 -28.90800094604492 L 236.4119873046875 -9.460000991821289 C 236.4119873046875 -7.964000701904297 236.5513458251953 -6.600000858306885 236.8300018310547 -5.368000984191895 C 237.1086883544922 -4.136000633239746 237.5999908447266 -3.087350845336914 238.3040008544922 -2.22200083732605 C 239.0079956054688 -1.356650829315186 239.9467010498047 -0.6820008158683777 241.1199951171875 -0.1980008184909821 C 242.2933502197266 0.2859991788864136 243.7746887207031 0.5279991626739502 245.5639953613281 0.5279991626739502 M 181.7200012207031 0.5279991626739502 C 183.6559906005859 0.5279991626739502 185.5039978027344 0.3886491656303406 187.2639923095703 0.1099991723895073 C 189.0240020751953 -0.168650820851326 190.4613494873047 -0.4693508148193359 191.5759887695313 -0.7920008301734924 L 191.5759887695313 -23.14400100708008 L 185.0199890136719 -23.14400100708008 L 185.0199890136719 -5.280000686645508 C 184.6093444824219 -5.22135066986084 184.1399993896484 -5.170001029968262 183.6119995117188 -5.126000881195068 C 183.0839996337891 -5.082000732421875 182.5853424072266 -5.060000896453857 182.1159973144531 -5.060000896453857 C 180.5906524658203 -5.060000896453857 179.5493469238281 -5.529350757598877 178.9919891357422 -6.468000888824463 C 178.4346923828125 -7.406651020050049 178.1559906005859 -8.932001113891602 178.1559906005859 -11.04400062561035 L 178.1559906005859 -23.14400100708008 L 171.5999908447266 -23.14400100708008 L 171.5999908447266 -10.25200080871582 C 171.5999908447266 -8.668001174926758 171.7613372802734 -7.216001033782959 172.0839996337891 -5.896000862121582 C 172.4066925048828 -4.576000690460205 172.9493408203125 -3.439350843429565 173.7119903564453 -2.486000776290894 C 174.4747009277344 -1.532650828361511 175.5086517333984 -0.7920008301734924 176.8139953613281 -0.2640008330345154 C 178.1193389892578 0.2639991641044617 179.754638671875 0.5279991626739502 181.7200012207031 0.5279991626739502 M 161.2159881591797 0.5279991626739502 C 162.6239929199219 0.5279991626739502 163.8119964599609 0.4106491804122925 164.7799987792969 0.17599917948246 C 165.7480010986328 -0.05865082517266273 166.6279907226563 -0.3373508155345917 167.4199981689453 -0.6600008010864258 L 166.4960021972656 -5.76400089263916 C 165.8799896240234 -5.529350757598877 165.197998046875 -5.346000671386719 164.4499969482422 -5.214000701904297 C 163.7019958496094 -5.082000732421875 162.9759979248047 -5.016000747680664 162.2719879150391 -5.016000747680664 C 160.8053436279297 -5.016000747680664 159.8300018310547 -5.426651000976563 159.3459930419922 -6.248000621795654 C 158.8619995117188 -7.069350719451904 158.6199951171875 -8.169350624084473 158.6199951171875 -9.548001289367676 L 158.6199951171875 -17.68800163269043 L 166.4960021972656 -17.68800163269043 L 166.4960021972656 -23.14400100708008 L 158.6199951171875 -23.14400100708008 L 158.6199951171875 -29.9640007019043 L 152.0639953613281 -28.90800094604492 L 152.0639953613281 -9.460000991821289 C 152.0639953613281 -7.964000701904297 152.2033386230469 -6.600000858306885 152.4819946289063 -5.368000984191895 C 152.7606964111328 -4.136000633239746 153.2519989013672 -3.087350845336914 153.9559936523438 -2.22200083732605 C 154.6599884033203 -1.356650829315186 155.5986938476563 -0.6820008158683777 156.7719879150391 -0.1980008184909821 C 157.9453430175781 0.2859991788864136 159.4266967773438 0.5279991626739502 161.2159881591797 0.5279991626739502 M 220.7039947509766 0.4839991629123688 C 223.0800018310547 0.4839991629123688 225.1039886474609 0.3446491658687592 226.7760009765625 0.06599917262792587 C 228.447998046875 -0.2126508206129074 229.7533416748047 -0.4546508193016052 230.6920013427734 -0.6600008010864258 L 230.6920013427734 -14.30000114440918 C 230.6920013427734 -15.73735046386719 230.5307006835938 -17.04265022277832 230.2079925537109 -18.21600151062012 C 229.8853454589844 -19.38935089111328 229.3353424072266 -20.38665008544922 228.5579986572266 -21.20800018310547 C 227.7807006835938 -22.02935028076172 226.7466430664063 -22.66000175476074 225.4559936523438 -23.10000038146973 C 224.1653442382813 -23.54000091552734 222.552001953125 -23.76000022888184 220.6159973144531 -23.76000022888184 C 219.8533477783203 -23.76000022888184 219.0979919433594 -23.72335052490234 218.3499908447266 -23.65000152587891 C 217.6019897460938 -23.57665061950684 216.8907012939453 -23.48865127563477 216.2159881591797 -23.38600158691406 C 215.5413513183594 -23.28334999084473 214.9179992675781 -23.16600036621094 214.3459930419922 -23.03400039672852 C 213.7740020751953 -22.90200042724609 213.2973480224609 -22.77735137939453 212.9160003662109 -22.66000175476074 L 213.7519989013672 -17.38000106811523 C 214.5439910888672 -17.6733512878418 215.4826507568359 -17.90065002441406 216.5679931640625 -18.0620002746582 C 217.6533508300781 -18.22335052490234 218.7533416748047 -18.30400085449219 219.8679962158203 -18.30400085449219 C 221.5399932861328 -18.30400085449219 222.7133483886719 -17.96665000915527 223.3880004882813 -17.29200172424316 C 224.0626373291016 -16.61735153198242 224.3999938964844 -15.7226505279541 224.3999938964844 -14.60800075531006 L 224.3999938964844 -13.99200057983398 C 223.9893493652344 -14.10935115814209 223.4539947509766 -14.20465087890625 222.7939910888672 -14.278000831604 C 222.1339874267578 -14.35135078430176 221.3786468505859 -14.38800048828125 220.5279998779297 -14.38800048828125 C 219.2666473388672 -14.38800048828125 218.0493469238281 -14.26335048675537 216.8759918212891 -14.01400089263916 C 215.7026519775391 -13.76465129852295 214.6613464355469 -13.36135101318359 213.7519989013672 -12.80400085449219 C 212.8426513671875 -12.24665069580078 212.11669921875 -11.49865055084229 211.5739898681641 -10.5600004196167 C 211.0313415527344 -9.62135124206543 210.7599945068359 -8.477351188659668 210.7599945068359 -7.128000736236572 C 210.7599945068359 -5.720000743865967 210.9946441650391 -4.53200101852417 211.4639892578125 -3.564000844955444 C 211.933349609375 -2.596000909805298 212.6080017089844 -1.81135082244873 213.4879913330078 -1.210000872612 C 214.3679962158203 -0.608650803565979 215.4167022705078 -0.1760008186101913 216.6339874267578 0.08799917250871658 C 217.8513488769531 0.3519991636276245 219.2079925537109 0.4839991629123688 220.7039947509766 0.4839991629123688 M 221.7599945068359 -9.988000869750977 C 222.1999969482422 -9.988000869750977 222.6839904785156 -9.958650588989258 223.2119903564453 -9.90000057220459 C 223.739990234375 -9.841350555419922 224.1360015869141 -9.782650947570801 224.3999938964844 -9.724000930786133 L 224.3999938964844 -4.75200080871582 C 224.0479888916016 -4.693350791931152 223.5786895751953 -4.649350643157959 222.9919891357422 -4.620000839233398 C 222.4053497314453 -4.590651035308838 221.7893524169922 -4.576000690460205 221.1439971923828 -4.576000690460205 C 219.9413452148438 -4.576000690460205 218.9953460693359 -4.774000644683838 218.3059997558594 -5.170001029968262 C 217.61669921875 -5.566000938415527 217.2719879150391 -6.277350902557373 217.2719879150391 -7.304000854492188 C 217.2719879150391 -7.832000732421875 217.3893432617188 -8.272001266479492 217.6239929199219 -8.624000549316406 C 217.8586883544922 -8.976000785827637 218.1813507080078 -9.254651069641113 218.5919952392578 -9.460000991821289 C 219.0027008056641 -9.665350914001465 219.4793395996094 -9.804651260375977 220.0219879150391 -9.87800121307373 C 220.5646514892578 -9.951351165771484 221.1439971923828 -9.988000869750977 221.7599945068359 -9.988000869750977 M 136.3559875488281 0.4839991629123688 C 138.7319946289063 0.4839991629123688 140.7559967041016 0.3446491658687592 142.4279937744141 0.06599917262792587 C 144.0999908447266 -0.2126508206129074 145.4053497314453 -0.4546508193016052 146.343994140625 -0.6600008010864258 L 146.343994140625 -14.30000114440918 C 146.343994140625 -15.73735046386719 146.1826477050781 -17.04265022277832 145.8600006103516 -18.21600151062012 C 145.5373382568359 -19.38935089111328 144.9873504638672 -20.38665008544922 144.2099914550781 -21.20800018310547 C 143.4326934814453 -22.02935028076172 142.3986511230469 -22.66000175476074 141.1080017089844 -23.10000038146973 C 139.8173522949219 -23.54000091552734 138.2039947509766 -23.76000022888184 136.2679901123047 -23.76000022888184 C 135.5053405761719 -23.76000022888184 134.75 -23.72335052490234 134.0019989013672 -23.65000152587891 C 133.2539978027344 -23.57665061950684 132.5426483154297 -23.48865127563477 131.8679962158203 -23.38600158691406 C 131.1933441162109 -23.28334999084473 130.5699920654297 -23.16600036621094 129.9980010986328 -23.03400039672852 C 129.4259948730469 -22.90200042724609 128.9493408203125 -22.77735137939453 128.5679931640625 -22.66000175476074 L 129.4039916992188 -17.38000106811523 C 130.1959991455078 -17.6733512878418 131.1346435546875 -17.90065002441406 132.2200012207031 -18.0620002746582 C 133.3053436279297 -18.22335052490234 134.4053497314453 -18.30400085449219 135.5199890136719 -18.30400085449219 C 137.1920013427734 -18.30400085449219 138.3653411865234 -17.96665000915527 139.0399932861328 -17.29200172424316 C 139.7146911621094 -16.61735153198242 140.052001953125 -15.7226505279541 140.052001953125 -14.60800075531006 L 140.052001953125 -13.99200057983398 C 139.6413421630859 -14.10935115814209 139.1059875488281 -14.20465087890625 138.4459991455078 -14.278000831604 C 137.7859954833984 -14.35135078430176 137.0307006835938 -14.38800048828125 136.1799926757813 -14.38800048828125 C 134.918701171875 -14.38800048828125 133.7013397216797 -14.26335048675537 132.5279998779297 -14.01400089263916 C 131.3546905517578 -13.76465129852295 130.3133392333984 -13.36135101318359 129.4039916992188 -12.80400085449219 C 128.4946899414063 -12.24665069580078 127.7686920166016 -11.49865055084229 127.2259979248047 -10.5600004196167 C 126.6833419799805 -9.62135124206543 126.411994934082 -8.477351188659668 126.411994934082 -7.128000736236572 C 126.411994934082 -5.720000743865967 126.6466445922852 -4.53200101852417 127.1159973144531 -3.564000844955444 C 127.5853424072266 -2.596000909805298 128.2599945068359 -1.81135082244873 129.1399993896484 -1.210000872612 C 130.0199890136719 -0.608650803565979 131.0686492919922 -0.1760008186101913 132.2859954833984 0.08799917250871658 C 133.5033416748047 0.3519991636276245 134.8600006103516 0.4839991629123688 136.3559875488281 0.4839991629123688 M 137.4119873046875 -9.988000869750977 C 137.8519897460938 -9.988000869750977 138.3359985351563 -9.958650588989258 138.8639984130859 -9.90000057220459 C 139.3919982910156 -9.841350555419922 139.7879943847656 -9.782650947570801 140.052001953125 -9.724000930786133 L 140.052001953125 -4.75200080871582 C 139.6999969482422 -4.693350791931152 139.2306518554688 -4.649350643157959 138.6439971923828 -4.620000839233398 C 138.0573425292969 -4.590651035308838 137.4413452148438 -4.576000690460205 136.7959899902344 -4.576000690460205 C 135.5933380126953 -4.576000690460205 134.6473388671875 -4.774000644683838 133.9579925537109 -5.170001029968262 C 133.2686462402344 -5.566000938415527 132.9239959716797 -6.277350902557373 132.9239959716797 -7.304000854492188 C 132.9239959716797 -7.832000732421875 133.0413513183594 -8.272001266479492 133.2760009765625 -8.624000549316406 C 133.5106506347656 -8.976000785827637 133.8333435058594 -9.254651069641113 134.2439880371094 -9.460000991821289 C 134.6546478271484 -9.665350914001465 135.13134765625 -9.804651260375977 135.6739959716797 -9.87800121307373 C 136.2166900634766 -9.951351165771484 136.7959899902344 -9.988000869750977 137.4119873046875 -9.988000869750977 M 206.9759979248047 0.4399991631507874 L 207.8999938964844 -4.972000598907471 C 207.1080017089844 -5.030650615692139 206.4773406982422 -5.162651062011719 206.0079956054688 -5.368000984191895 C 205.5386505126953 -5.57335090637207 205.1793518066406 -5.837350845336914 204.9299926757813 -6.160000801086426 C 204.6806488037109 -6.482650756835938 204.5119934082031 -6.878650665283203 204.4239959716797 -7.348001003265381 C 204.3359985351563 -7.8173508644104 204.2919921875 -8.345351219177246 204.2919921875 -8.932001113891602 L 204.2919921875 -34.14400100708008 L 197.7359924316406 -33.0880012512207 L 197.7359924316406 -7.612000942230225 C 197.7359924316406 -6.380000591278076 197.8606872558594 -5.272650718688965 198.1100006103516 -4.290000915527344 C 198.3593444824219 -3.307350873947144 198.8286895751953 -2.471350908279419 199.5179901123047 -1.782000780105591 C 200.2073516845703 -1.092650771141052 201.14599609375 -0.5573508143424988 202.3339996337891 -0.1760008186101913 C 203.5219879150391 0.2053491771221161 205.0693511962891 0.4106491804122925 206.9759979248047 0.4399991631507874 M 315.5679931640625 -8.239746307481255e-07 L 315.5679931640625 -13.06800079345703 C 315.5679931640625 -14.65200042724609 315.4066467285156 -16.08935165405273 315.083984375 -17.38000106811523 C 314.7613525390625 -18.67065048217773 314.2186584472656 -19.78535079956055 313.4559936523438 -20.72400093078613 C 312.693359375 -21.66265106201172 311.6593322753906 -22.38865089416504 310.35400390625 -22.90200042724609 C 309.0487060546875 -23.41534996032715 307.413330078125 -23.67200088500977 305.447998046875 -23.67200088500977 C 303.5119934082031 -23.67200088500977 301.6640014648438 -23.53264999389648 299.9039916992188 -23.25400161743164 C 298.1439819335938 -22.97535133361816 296.7066955566406 -22.67465019226074 295.5919799804688 -22.35200119018555 L 295.5919799804688 -8.239746307481255e-07 L 302.1479797363281 -8.239746307481255e-07 L 302.1479797363281 -17.86400032043457 C 302.5586547851563 -17.92265129089355 303.0279846191406 -17.97400093078613 303.5559997558594 -18.01800155639648 C 304.083984375 -18.0620002746582 304.5827026367188 -18.0840015411377 305.052001953125 -18.0840015411377 C 306.5773315429688 -18.0840015411377 307.61865234375 -17.64400100708008 308.1759948730469 -16.76399993896484 C 308.7333374023438 -15.88400077819824 309.0119934082031 -14.38800048828125 309.0119934082031 -12.2760009765625 L 309.0119934082031 -8.239746307481255e-07 L 315.5679931640625 -8.239746307481255e-07 M 262.7239990234375 -8.239746307481255e-07 L 262.7239990234375 -23.14400100708008 L 256.1679992675781 -23.14400100708008 L 256.1679992675781 -8.239746307481255e-07 L 262.7239990234375 -8.239746307481255e-07 M 116.379997253418 -8.239746307481255e-07 L 116.379997253418 -17.68800163269043 C 116.6733474731445 -17.7760009765625 117.1059951782227 -17.85665130615234 117.6779937744141 -17.93000030517578 C 118.2499923706055 -18.00335121154785 118.7413482666016 -18.04000091552734 119.1519927978516 -18.04000091552734 C 120.0613479614258 -18.04000091552734 120.911994934082 -17.9593505859375 121.7039947509766 -17.79800033569336 C 122.4959945678711 -17.63665008544922 123.1853485107422 -17.48265075683594 123.7719955444336 -17.33600044250488 L 124.8719940185547 -22.74800109863281 C 124.5199966430664 -22.89465141296387 124.0946960449219 -23.01935005187988 123.5959930419922 -23.12200164794922 C 123.0973434448242 -23.22465133666992 122.5986938476563 -23.31265068054199 122.0999984741211 -23.38600158691406 C 121.6013412475586 -23.4593505859375 121.1026916503906 -23.51800155639648 120.6039962768555 -23.5620002746582 C 120.1053466796875 -23.60600090026855 119.6799926757813 -23.62800025939941 119.327995300293 -23.62800025939941 C 117.3626937866211 -23.62800025939941 115.580696105957 -23.44465065002441 113.9819946289063 -23.07800102233887 C 112.3833465576172 -22.71135139465332 110.9973449707031 -22.32265090942383 109.8239974975586 -21.91200065612793 L 109.8239974975586 -8.239746307481255e-07 L 116.379997253418 -8.239746307481255e-07 M 77.74799346923828 -8.239746307481255e-07 L 77.74799346923828 -13.06800079345703 C 77.74799346923828 -14.65200042724609 77.58669281005859 -16.08935165405273 77.26399230957031 -17.38000106811523 C 76.94134521484375 -18.67065048217773 76.39864349365234 -19.78535079956055 75.63599395751953 -20.72400093078613 C 74.87334442138672 -21.66265106201172 73.83934783935547 -22.38865089416504 72.53399658203125 -22.90200042724609 C 71.22869110107422 -23.41534996032715 69.59334564208984 -23.67200088500977 67.62799835205078 -23.67200088500977 C 65.69199371337891 -23.67200088500977 63.843994140625 -23.53264999389648 62.0839958190918 -23.25400161743164 C 60.32399368286133 -22.97535133361816 58.88669586181641 -22.67465019226074 57.77199554443359 -22.35200119018555 L 57.77199554443359 -8.239746307481255e-07 L 64.32799530029297 -8.239746307481255e-07 L 64.32799530029297 -17.86400032043457 C 64.73869323730469 -17.92265129089355 65.20799255371094 -17.97400093078613 65.73599243164063 -18.01800155639648 C 66.26399230957031 -18.0620002746582 66.7626953125 -18.0840015411377 67.23199462890625 -18.0840015411377 C 68.75734710693359 -18.0840015411377 69.79869842529297 -17.64400100708008 70.35599517822266 -16.76399993896484 C 70.91334533691406 -15.88400077819824 71.19199371337891 -14.38800048828125 71.19199371337891 -12.2760009765625 L 71.19199371337891 -8.239746307481255e-07 L 77.74799346923828 -8.239746307481255e-07 M 348.6119995117188 -9.724000930786133 C 348.9053039550781 -11.83600044250488 349.1399841308594 -13.91865062713623 349.3160095214844 -15.97200107574463 C 349.4920043945313 -18.02535057067871 349.5799865722656 -20.2400016784668 349.5799865722656 -22.61600112915039 L 349.5799865722656 -30.49200057983398 L 342.583984375 -30.49200057983398 L 342.583984375 -22.61600112915039 C 342.583984375 -20.2400016784668 342.6793518066406 -18.02535057067871 342.8699951171875 -15.97200107574463 C 343.0606384277344 -13.91865062713623 343.3026428222656 -11.83600044250488 343.5960083007813 -9.724000930786133 L 348.6119995117188 -9.724000930786133 M 259.4239807128906 -25.96000099182129 C 260.47998046875 -25.96000099182129 261.3966979980469 -26.30465126037598 262.1739807128906 -26.9940013885498 C 262.9513549804688 -27.68335151672363 263.3399963378906 -28.62935066223145 263.3399963378906 -29.83200073242188 C 263.3399963378906 -31.0346508026123 262.9513549804688 -31.98064994812012 262.1739807128906 -32.67000198364258 C 261.3966979980469 -33.35935211181641 260.47998046875 -33.70400238037109 259.4239807128906 -33.70400238037109 C 258.3679809570313 -33.70400238037109 257.4513549804688 -33.35935211181641 256.6739807128906 -32.67000198364258 C 255.8966979980469 -31.98064994812012 255.5079956054688 -31.0346508026123 255.5079956054688 -29.83200073242188 C 255.5079956054688 -28.62935066223145 255.8966979980469 -27.68335151672363 256.6739807128906 -26.9940013885498 C 257.4513549804688 -26.30465126037598 258.3679809570313 -25.96000099182129 259.4239807128906 -25.96000099182129 M 91.87199401855469 13.27199935913086 C 90.17894744873047 13.27199935913086 88.46444702148438 13.12039947509766 86.77609252929688 12.82139873504639 C 85.12309265136719 12.52864933013916 83.55534362792969 12.13109874725342 82.11639404296875 11.63979911804199 L 77.93754577636719 10.2129487991333 L 78.83674621582031 5.889799118041992 L 79.02182006835938 4.999999046325684 L 77.74799346923828 4.999999046325684 L 71.19199371337891 4.999999046325684 L 69.32799530029297 4.999999046325684 L 64.32799530029297 4.999999046325684 L 57.77199554443359 4.999999046325684 L 52.77199554443359 4.999999046325684 L 52.77199554443359 1.188324809074402 C 51.40187835693359 2.522591352462769 49.79506683349609 3.582602024078369 47.9861946105957 4.344199180603027 C 45.9819450378418 5.188099384307861 43.75254440307617 5.615999221801758 41.35999298095703 5.615999221801758 C 38.99669647216797 5.615999221801758 36.78214645385742 5.188099384307861 34.77779388427734 4.344199180603027 C 33.4090576171875 3.76790452003479 32.15591430664063 3.020692586898804 31.03349685668945 2.113074779510498 L 30.22344398498535 2.603999137878418 C 28.83469581604004 3.445649147033691 27.06994438171387 4.14539909362793 24.82834434509277 4.743149280548096 C 22.65654563903809 5.322349071502686 20.16534423828125 5.615999221801758 17.42399406433105 5.615999221801758 C 11.05659484863281 5.615999221801758 6.019845008850098 3.695349216461182 2.453544855117798 -0.09260082244873047 C -1.032455086708069 -3.79525089263916 -2.800005197525024 -8.9010009765625 -2.800005197525024 -15.26800060272217 C -2.800005197525024 -18.41780090332031 -2.280005216598511 -21.31495094299316 -1.25440514087677 -23.87895011901855 C -0.2097551226615906 -26.49055099487305 1.264494895935059 -28.7492504119873 3.127394914627075 -30.59235000610352 C 5.010244846343994 -32.45515060424805 7.268694877624512 -33.88105010986328 9.840094566345215 -34.83050155639648 C 12.2941951751709 -35.73659896850586 14.96419525146484 -36.19599914550781 17.7759952545166 -36.19599914550781 C 19.35764503479004 -36.19599914550781 20.84079551696777 -36.07300186157227 22.18434524536133 -35.83045196533203 C 23.44199562072754 -35.60340118408203 24.5809440612793 -35.33045196533203 25.56949424743652 -35.01919937133789 C 26.62409400939941 -34.68720245361328 27.51204490661621 -34.33815002441406 28.28404426574707 -33.95215225219727 C 28.96929550170898 -33.60955047607422 29.46429443359375 -33.34004974365234 29.84189414978027 -33.10404968261719 L 33.25399398803711 -30.97154998779297 L 31.90069580078125 -27.18230056762695 L 31.25790023803711 -25.38247680664063 C 32.34899520874023 -26.2318229675293 33.55605316162109 -26.9367504119873 34.86579513549805 -27.48820114135742 C 36.87014389038086 -28.33209991455078 39.05509567260742 -28.76000022888184 41.35999298095703 -28.76000022888184 C 43.69414520263672 -28.76000022888184 45.89394378662109 -28.33209991455078 47.89829635620117 -27.48820114135742 C 49.74571990966797 -26.71035766601563 51.3827018737793 -25.6270637512207 52.77199554443359 -24.2640266418457 L 52.77199554443359 -26.11000061035156 L 56.38179397583008 -27.15485000610352 C 57.70904541015625 -27.53900146484375 59.31849670410156 -27.87845039367676 61.30209350585938 -28.19250106811523 C 63.31179428100586 -28.51065063476563 65.44014739990234 -28.67200088500977 67.62799835205078 -28.67200088500977 C 70.24959564208984 -28.67200088500977 72.45294189453125 -28.30665016174316 74.36394500732422 -27.55510139465332 C 76.4742431640625 -26.72520065307617 78.20789337158203 -25.48764991760254 79.51659393310547 -23.87695121765137 C 79.92204284667969 -23.3779239654541 80.2890625 -22.84918212890625 80.61684417724609 -22.29240798950195 C 81.08702850341797 -22.93945121765137 81.60869598388672 -23.54584312438965 82.18034362792969 -24.10920143127441 C 83.69589233398438 -25.6028003692627 85.54384613037109 -26.75955009460449 87.67299652099609 -27.54730033874512 C 89.69009399414063 -28.29360008239746 91.94664764404297 -28.67200088500977 94.37999725341797 -28.67200088500977 C 95.31374359130859 -28.67200088500977 96.28239440917969 -28.6285514831543 97.25899505615234 -28.54285049438477 C 98.18174743652344 -28.46190071105957 99.10904693603516 -28.35520172119141 100.0152435302734 -28.22574996948242 C 100.9489974975586 -28.09230041503906 101.857795715332 -27.93074989318848 102.7162933349609 -27.74560165405273 C 103.5892486572266 -27.55730056762695 104.3914947509766 -27.35390090942383 105.1007919311523 -27.14109992980957 L 107.538948059082 -26.40962600708008 L 108.1723480224609 -26.63129997253418 C 109.5147476196289 -27.10115051269531 111.0933456420898 -27.54530143737793 112.8642425537109 -27.95145034790039 C 114.8216934204102 -28.40040016174316 116.9963912963867 -28.62800025939941 119.327995300293 -28.62800025939941 C 119.8314437866211 -28.62800025939941 120.3925933837891 -28.60010147094727 121.0434951782227 -28.54265022277832 C 121.6359939575195 -28.4903507232666 122.2362976074219 -28.41975021362305 122.8276443481445 -28.33275032043457 C 123.4174423217773 -28.24600028991699 124.0151443481445 -28.14055061340332 124.6041412353516 -28.01930046081543 C 125.4240951538086 -27.85055160522461 126.1407470703125 -27.63600158691406 126.7948913574219 -27.36345100402832 L 126.8193283081055 -27.35326957702637 L 127.0974426269531 -27.43885040283203 C 127.597541809082 -27.59275054931641 128.1785888671875 -27.74555015563965 128.8736877441406 -27.90595054626465 C 129.5657958984375 -28.06565093994141 130.3201904296875 -28.20805168151855 131.1158905029297 -28.3291015625 C 131.8746948242188 -28.44455146789551 132.6815490722656 -28.54450035095215 133.5140380859375 -28.62615013122559 C 134.4198913574219 -28.71495056152344 135.3464508056641 -28.76000022888184 136.2679901123047 -28.76000022888184 C 138.7798461914063 -28.76000022888184 140.8907470703125 -28.45665168762207 142.7213897705078 -27.83255004882813 C 144.4024658203125 -27.25945281982422 145.8586120605469 -26.44007682800293 147.0639953613281 -25.39050674438477 L 147.0639953613281 -28.90800094604492 L 147.0639953613281 -33.16709899902344 L 151.2688903808594 -33.84435272216797 L 157.8248901367188 -34.90035247802734 L 163.6199951171875 -35.83380126953125 L 163.6199951171875 -29.9640007019043 L 163.6199951171875 -28.14400100708008 L 166.4960021972656 -28.14400100708008 L 166.5999908447266 -28.14400100708008 L 171.5999908447266 -28.14400100708008 L 178.1559906005859 -28.14400100708008 L 183.1559906005859 -28.14400100708008 L 185.0199890136719 -28.14400100708008 L 191.5759887695313 -28.14400100708008 L 192.7359924316406 -28.14400100708008 L 192.7359924316406 -33.0880012512207 L 192.7359924316406 -37.34709930419922 L 196.9408874511719 -38.02434921264648 L 203.4969024658203 -39.08034896850586 L 209.2919921875 -40.01380157470703 L 209.2919921875 -34.14400100708008 L 209.2919921875 -26.77619934082031 L 211.4454498291016 -27.43885040283203 C 211.9455413818359 -27.59275054931641 212.5265960693359 -27.74555015563965 213.2216949462891 -27.90595054626465 C 213.9137878417969 -28.06565093994141 214.6681976318359 -28.20805168151855 215.4638977050781 -28.3291015625 C 216.222900390625 -28.44460105895996 217.0296936035156 -28.54450035095215 217.8620452880859 -28.62615013122559 C 218.7678985595703 -28.71495056152344 219.6944427490234 -28.76000022888184 220.6159973144531 -28.76000022888184 C 223.1278381347656 -28.76000022888184 225.2387390136719 -28.45665168762207 227.0693969726563 -27.83255004882813 C 228.7504730224609 -27.25945281982422 230.2066192626953 -26.44007682800293 231.4119873046875 -25.39050674438477 L 231.4119873046875 -28.90800094604492 L 231.4119873046875 -33.16709899902344 L 235.6168975830078 -33.84435272216797 L 242.1728973388672 -34.90035247802734 L 247.9680023193359 -35.83380126953125 L 247.9680023193359 -29.9640007019043 L 247.9680023193359 -28.14400100708008 L 250.6510009765625 -28.14400100708008 C 250.5558776855469 -28.68911552429199 250.5079956054688 -29.25291442871094 250.5079956054688 -29.83200073242188 C 250.5079956054688 -31.08550071716309 250.7322998046875 -32.26700210571289 251.1746520996094 -33.34365081787109 C 251.6602935791016 -34.52565002441406 252.3943481445313 -35.55760192871094 253.3564453125 -36.41085052490234 C 255.0481872558594 -37.91105270385742 257.1463012695313 -38.70400238037109 259.4239807128906 -38.70400238037109 C 261.7017822265625 -38.70400238037109 263.7999572753906 -37.91105270385742 265.4915466308594 -36.41085052490234 C 266.4535827636719 -35.55765151977539 267.187744140625 -34.52569961547852 267.6734008789063 -33.34360122680664 C 268.1156921386719 -32.26700210571289 268.3399963378906 -31.08550071716309 268.3399963378906 -29.83200073242188 C 268.3399963378906 -28.62723541259766 268.1327819824219 -27.48898315429688 267.7239990234375 -26.44644927978516 L 267.7239990234375 -24.19585037231445 C 269.1405334472656 -25.59097480773926 270.8076477050781 -26.69743347167969 272.685791015625 -27.48820114135742 C 274.6901550292969 -28.33209991455078 276.8750915527344 -28.76000022888184 279.1799926757813 -28.76000022888184 C 281.5140991210938 -28.76000022888184 283.7138366699219 -28.33209991455078 285.7182006835938 -27.48820114135742 C 287.5657043457031 -26.71035766601563 289.2026977539063 -25.62706184387207 290.5919799804688 -24.26402473449707 L 290.5919799804688 -26.11000061035156 L 294.2017822265625 -27.15485000610352 C 295.529052734375 -27.53900146484375 297.1384887695313 -27.87845039367676 299.1221008300781 -28.19250106811523 C 301.1318054199219 -28.51065063476563 303.2601318359375 -28.67200088500977 305.447998046875 -28.67200088500977 C 308.069580078125 -28.67200088500977 310.27294921875 -28.30665016174316 312.1839599609375 -27.55510139465332 C 314.2942504882813 -26.72520065307617 316.0278930664063 -25.48764991760254 317.3366088867188 -23.87695121765137 C 317.4792785644531 -23.70132064819336 317.6172485351563 -23.5219554901123 317.7503967285156 -23.33902931213379 C 318.3900146484375 -24.25828742980957 319.1761779785156 -25.08447456359863 320.1004028320313 -25.80705070495605 C 322.6065368652344 -27.76645088195801 325.8780517578125 -28.76000022888184 329.8240051269531 -28.76000022888184 C 331.5429992675781 -28.76000022888184 333.2240600585938 -28.60365104675293 334.8204040527344 -28.29524993896484 C 335.8688049316406 -28.09268951416016 336.7831115722656 -27.87391471862793 337.583984375 -27.63337707519531 L 337.583984375 -30.49200057983398 L 337.583984375 -35.49200057983398 L 342.583984375 -35.49200057983398 L 349.5799865722656 -35.49200057983398 L 354.5799865722656 -35.49200057983398 L 354.5799865722656 -30.49200057983398 L 354.5799865722656 -22.61600112915039 C 354.5799865722656 -20.10920143127441 354.4850463867188 -17.73015022277832 354.2977600097656 -15.54500102996826 C 354.1152038574219 -13.41515064239502 353.8684387207031 -11.22530078887939 353.564453125 -9.036251068115234 L 353.5281982421875 -8.77520751953125 C 353.8945922851563 -8.265872955322266 354.2026062011719 -7.714601039886475 354.4498596191406 -7.124701023101807 C 354.9157409667969 -6.01305103302002 355.1520080566406 -4.78545093536377 355.1520080566406 -3.476000785827637 C 355.1520080566406 -2.166550874710083 354.9157409667969 -0.9389508366584778 354.4498596191406 0.1726991832256317 C 353.9320373535156 1.408149123191833 353.1477355957031 2.473999261856079 352.1186828613281 3.340549230575562 C 350.3851318359375 4.800399303436279 348.2901000976563 5.571999073028564 346.0599975585938 5.571999073028564 C 343.8298950195313 5.571999073028564 341.7348327636719 4.800399303436279 340.0012817382813 3.340549230575562 C 339.6473693847656 3.042513847351074 339.3223876953125 2.72089958190918 339.0272521972656 2.376922130584717 C 338.7662963867188 2.591039419174194 338.4931335449219 2.795518398284912 338.2080993652344 2.989999294281006 C 336.8523559570313 3.91499924659729 335.2530822753906 4.603899002075195 333.4547424316406 5.037599086761475 C 331.86328125 5.421399116516113 330.0643920898438 5.615999221801758 328.1080017089844 5.615999221801758 C 325.6083374023438 5.615999221801758 323.52294921875 5.391399383544922 321.7326049804688 4.929399013519287 C 321.3097839355469 4.820281028747559 320.9230651855469 4.716278076171875 320.5679931640625 4.615989685058594 L 320.5679931640625 4.999999046325684 L 315.5679931640625 4.999999046325684 L 309.0119934082031 4.999999046325684 L 307.1479797363281 4.999999046325684 L 302.1479797363281 4.999999046325684 L 295.5919799804688 4.999999046325684 L 290.5919799804688 4.999999046325684 L 290.5919799804688 1.188308477401733 C 289.2217712402344 2.522634983062744 287.6149291992188 3.582646131515503 285.8061828613281 4.344199180603027 C 283.8018493652344 5.188099384307861 281.572509765625 5.615999221801758 279.1799926757813 5.615999221801758 C 276.8166809082031 5.615999221801758 274.6021423339844 5.188099384307861 272.5978088378906 4.344199180603027 C 270.7501525878906 3.566272258758545 269.11328125 2.476971626281738 267.7239990234375 1.101911544799805 L 267.7239990234375 4.999999046325684 L 262.7239990234375 4.999999046325684 L 256.1679992675781 4.999999046325684 L 251.1679992675781 4.999999046325684 L 251.1679992675781 4.811275005340576 C 250.8855133056641 4.889734268188477 250.5979309082031 4.964459896087646 250.3058929443359 5.03524923324585 C 248.9381408691406 5.366848945617676 247.3870391845703 5.527999401092529 245.5639953613281 5.527999401092529 C 243.0912933349609 5.527999401092529 241.0139923095703 5.166949272155762 239.2133483886719 4.424199104309082 C 237.8767242431641 3.872838020324707 236.6981964111328 3.14601993560791 235.6920013427734 2.254152297973633 L 235.6920013427734 3.364399194717407 L 231.7605895996094 4.224499225616455 C 230.7306518554688 4.449799060821533 229.3690490722656 4.702799320220947 227.5979461669922 4.99799919128418 C 225.6355438232422 5.324999332427979 223.3805389404297 5.483999252319336 220.7039947509766 5.483999252319336 C 218.8593902587891 5.483999252319336 217.1334991455078 5.312549114227295 215.5742950439453 4.974399089813232 C 214.0944061279297 4.653478145599365 212.7394104003906 4.144904136657715 211.5329742431641 3.458717823028564 L 211.1835479736328 5.505349159240723 L 206.8990478515625 5.439399242401123 C 204.4742431640625 5.402099132537842 202.4810943603516 5.122498989105225 200.8058013916016 4.584749221801758 C 199.1531982421875 4.054243564605713 197.7340850830078 3.287673234939575 196.5759887695313 2.301214933395386 L 196.5759887695313 2.965949058532715 L 192.9662475585938 4.010848999023438 C 191.6390991210938 4.394999027252197 190.0296478271484 4.734399318695068 188.0458984375 5.04849910736084 C 186.0361938476563 5.366649150848389 183.9078521728516 5.527999401092529 181.7200012207031 5.527999401092529 C 179.0816497802734 5.527999401092529 176.8636016845703 5.149599075317383 174.9391021728516 4.371149063110352 C 173.9047393798828 3.952762365341187 172.9615783691406 3.436398506164551 172.1152954101563 2.826195240020752 L 169.306396484375 3.970499277114868 C 168.2884979248047 4.385149002075195 167.1618957519531 4.743399143218994 165.9579010009766 5.03524923324585 C 164.5901489257813 5.366848945617676 163.0390472412109 5.527999401092529 161.2159881591797 5.527999401092529 C 158.7433013916016 5.527999401092529 156.6660003662109 5.166949272155762 154.8653411865234 4.424199104309082 C 153.5287322998047 3.872838020324707 152.3502044677734 3.146019697189331 151.343994140625 2.254152059555054 L 151.343994140625 3.364399194717407 L 147.41259765625 4.224499225616455 C 146.3826446533203 4.449799060821533 145.0210418701172 4.702799320220947 143.2499389648438 4.99799919128418 C 141.2875518798828 5.324999332427979 139.0325469970703 5.483999252319336 136.3559875488281 5.483999252319336 C 134.5113983154297 5.483999252319336 132.7854919433594 5.312549114227295 131.2262878417969 4.974399089813232 C 129.3810882568359 4.574249267578125 127.7300415039063 3.882449150085449 126.3189926147461 2.918199062347412 C 124.7145919799805 1.821849226951599 123.4690475463867 0.3748491704463959 122.616943359375 -1.382550835609436 C 121.8173980712891 -3.031600713729858 121.411994934082 -4.964650630950928 121.411994934082 -7.128000736236572 C 121.411994934082 -9.111086845397949 121.8060607910156 -10.90758800506592 122.5845489501953 -12.47896289825439 L 122.5593948364258 -12.48525047302246 C 122.2145004272461 -12.57147312164307 121.8196105957031 -12.66259860992432 121.379997253418 -12.75744438171387 L 121.379997253418 -8.239746307481255e-07 L 121.379997253418 4.999999046325684 L 116.379997253418 4.999999046325684 L 109.8239974975586 4.999999046325684 L 107.1468887329102 4.999999046325684 C 106.4285354614258 6.590158939361572 105.4564971923828 7.972625732421875 104.2336959838867 9.139399528503418 C 101.359992980957 11.88159942626953 97.20089721679688 13.27199935913086 91.87199401855469 13.27199935913086 Z M 163.6199951171875 -12.68800067901611 L 163.6199951171875 -10.14486503601074 C 164.0381927490234 -10.22059726715088 164.4068145751953 -10.31864929199219 164.7161407470703 -10.43650054931641 L 166.5999908447266 -11.15410900115967 L 166.5999908447266 -12.68800067901611 L 166.4960021972656 -12.68800067901611 L 163.6199951171875 -12.68800067901611 Z M 247.9680023193359 -12.68800067901611 L 247.9680023193359 -10.14486503601074 C 248.3861846923828 -10.22059726715088 248.7548217773438 -10.31864929199219 249.0641479492188 -10.43650054931641 L 251.1679992675781 -11.23791313171387 L 251.1679992675781 -12.68800067901611 L 250.843994140625 -12.68800067901611 L 247.9680023193359 -12.68800067901611 Z M 17.6879940032959 -20.12400054931641 C 17.19054412841797 -20.12400054931641 16.71319580078125 -20.04205131530762 16.22859573364258 -19.87350082397461 C 15.93149471282959 -19.77015113830566 15.68009471893311 -19.60905075073242 15.43754482269287 -19.36645126342773 C 15.16949462890625 -19.0984001159668 14.91594505310059 -18.66315078735352 14.70439529418945 -18.10795021057129 C 14.53274440765381 -17.65725135803223 14.32799530029297 -16.82145118713379 14.32799530029297 -15.40000057220459 C 14.32799530029297 -14.41180038452148 14.43204498291016 -13.49950122833252 14.63724517822266 -12.688401222229 C 14.77364444732666 -12.14930057525635 14.96499443054199 -11.72760105133057 15.22219467163086 -11.39920043945313 C 15.41594505310059 -11.15190124511719 15.69774532318115 -10.94520092010498 16.08359527587891 -10.76750087738037 C 16.51974487304688 -10.566650390625 17.21459579467773 -10.45600128173828 18.03999519348145 -10.45600128173828 C 18.78829574584961 -10.45600128173828 19.44479560852051 -10.49705123901367 19.99114418029785 -10.57800102233887 C 20.60059547424316 -10.66830062866211 21.13144493103027 -10.77220058441162 21.56909561157227 -10.88685035705566 C 22.01999473571777 -11.00495052337646 22.30234527587891 -11.11185073852539 22.4598445892334 -11.18075084686279 C 22.8975944519043 -11.37230110168457 23.29619407653809 -11.55090045928955 23.64454460144043 -11.71175098419189 L 24.97557258605957 -12.32611560821533 C 25.03351974487305 -14.09300994873047 25.30880737304688 -15.7755298614502 25.79687690734863 -17.34753227233887 L 22.86624526977539 -18.90439987182617 C 22.2453441619873 -19.23425102233887 21.47459411621094 -19.53025054931641 20.57539558410645 -19.78410148620605 C 19.77664566040039 -20.00965118408203 18.80519485473633 -20.12400054931641 17.6879940032959 -20.12400054931641 Z" stroke="none" fill="#fff"/></g></g></g></svg>