<svg xmlns="http://www.w3.org/2000/svg" width="113.154" height="87.908" viewBox="0 0 113.154 87.908">
    <g id="Group_41104" data-name="Group 41104" transform="translate(-769.585 -162.103)">
        <g id="Group_41105" data-name="Group 41105" transform="translate(864.981 177.127)">
            <path id="Path_64951" data-name="Path 64951" d="M2545.459,443.92a2.14,2.14,0,0,1-.724-1.084,1.939,1.939,0,0,1,.189-1.114l-.771-.154a2.8,2.8,0,0,0,.158,1.7,1.953,1.953,0,0,0,.683.6A.665.665,0,0,0,2545.459,443.92Z" transform="translate(-2544.086 -441.569)" fill="#6bb7bf"/>
            <path id="Path_64952" data-name="Path 64952" d="M2552.047,475.282l.7.8a3.2,3.2,0,0,1-3.116-.876S2551.3,475.773,2552.047,475.282Z" transform="translate(-2549.334 -473.4)" fill="#86d1cd"/>
        </g>
        <g id="Group_41106" data-name="Group 41106" transform="translate(830.825 167.611)">
            <path id="Path_64953" data-name="Path 64953" d="M1919.088,265.887a1.414,1.414,0,0,1,1.978-.461l.691-.753s-.722-.478-2.25.562C1918.508,265.916,1919.088,265.887,1919.088,265.887Z" transform="translate(-1918.373 -264.564)" fill="#f99746"/>
            <path id="Path_64954" data-name="Path 64954" d="M1908.743,271.244s-.24-1.295,1.891-2.25a2.286,2.286,0,0,0-.924,1.75Z" transform="translate(-1908.734 -268.756)" fill="#f99746"/>
        </g>
        <g id="Group_41107" data-name="Group 41107" transform="translate(785.862 205.275)">
            <path id="Path_64955" data-name="Path 64955" d="M1073.893,967.367a1.284,1.284,0,0,1-.712-1.7l-.779-.506s-.319.719.843,1.931C1074.007,967.882,1073.893,967.367,1073.893,967.367Z" transform="translate(-1072.363 -965.159)" fill="#5685d8"/>
            <path id="Path_64956" data-name="Path 64956" d="M1081.724,990.907s-1.123.411-2.3-1.354a2.076,2.076,0,0,0,1.707.564Z" transform="translate(-1079.043 -988.242)" fill="#739af0"/>
        </g>
        <path id="Path_64957" data-name="Path 64957" d="M1163.644,688.083s.647-.408.715-.9c0,0,.63.034.766.238,0,0-.289.817-.63.97C1164.5,688.39,1163.729,688.441,1163.644,688.083Z" transform="translate(-372.875 -496.85)" fill="#f1a34f"/>
        <path id="Path_64958" data-name="Path 64958" d="M1773.263,513.867s-.964-.609-1.065-1.344c0,0-.938.051-1.141.355,0,0,.431,1.217.938,1.446C1771.995,514.324,1773.136,514.4,1773.263,513.867Z" transform="translate(-947.633 -331.582)" fill="#86d1cd"/>
        <g id="Group_41108" data-name="Group 41108" transform="translate(791.51 162.103)">
            <rect id="Rectangle_9613" data-name="Rectangle 9613" width="18.735" height="53.963" transform="translate(50.996 33.64)" fill="#ffa412"/>
            <rect id="Rectangle_9614" data-name="Rectangle 9614" width="49.495" height="53.963" transform="translate(1.501 33.64)" fill="#ffb93e"/>
            <rect id="Rectangle_9615" data-name="Rectangle 9615" width="3.777" height="49.495" transform="translate(50.996 60.038) rotate(90)" fill="#ffa412"/>
            <rect id="Rectangle_9616" data-name="Rectangle 9616" width="3.777" height="18.735" transform="translate(69.73 60.038) rotate(90)" fill="#fa9712"/>
            <path id="Path_64959" data-name="Path 64959" d="M1836.033,703.662s11.182-7.266,18.783-4.931l-1.568,1.465.707,2.461a27.859,27.859,0,0,0-18.153,1.42Z" transform="translate(-1800.408 -669.444)" fill="#f99746"/>
            <path id="Path_64960" data-name="Path 64960" d="M1283.52,324.423s-1.973-.238-4.914-.643c-7.806-1.074-22.429-3.32-25.053-5.4-4.124-3.266,5.648-17.136,9.878-19.061S1283.52,324.423,1283.52,324.423Z" transform="translate(-1248.52 -291.851)" fill="#f99746"/>
            <path id="Path_64961" data-name="Path 64961" d="M1854.3,177.4c.7,3.436-31.228,18.28-31.228,18.28s.581-1.571,1.526-4.031l0,0c3.452-8.984,11.769-29.832,14.5-29.543a3.314,3.314,0,0,1,.955.284C1844.251,164.237,1853.646,174.239,1854.3,177.4Z" transform="translate(-1788.358 -162.103)" fill="#f99746"/>
            <path id="Path_64962" data-name="Path 64962" d="M1866.692,165.445c-1.95,3.388-14.983,25.854-15.187,26.2,3.452-8.984,11.769-29.832,14.5-29.543a1.738,1.738,0,0,1,.954.284C1867.46,162.753,1867.769,163.574,1866.692,165.445Z" transform="translate(-1815.266 -162.103)" fill="#ed7d2b"/>
            <path id="Path_64963" data-name="Path 64963" d="M1291.479,593.245h-.005c-7.807-1.074-22.429-3.32-25.053-5.4-1.185-3.338,1.89-3.61,4.127-3.845S1291.479,593.245,1291.479,593.245Z" transform="translate(-1261.386 -561.315)" fill="#ed7d2b"/>
            <path id="Path_64964" data-name="Path 64964" d="M1717.69,711.965s1.79-4.072,5.313-4.3c3.68-.235,5.77,4.3,5.77,4.3Z" transform="translate(-1688.645 -678.329)" fill="#ed7d2b"/>
            <rect id="Rectangle_9617" data-name="Rectangle 9617" width="51.79" height="7.422" transform="translate(0 33.64)" fill="#ffc261"/>
            <rect id="Rectangle_9618" data-name="Rectangle 9618" width="19.52" height="7.422" transform="translate(51.79 33.64)" fill="#fa9712"/>
            <path id="Path_64965" data-name="Path 64965" d="M1321.687,744.339s-10.143-3.213-16.988-1.089c-7.89,2.449-7.422,12.184-7.422,12.184l1.856-.763,2.5,1.175s.423-10.308,6.855-11.752C1314.054,742.846,1321.687,744.339,1321.687,744.339Z" transform="translate(-1290.828 -711.321)" fill="#f99746"/>
            <rect id="Rectangle_9619" data-name="Rectangle 9619" width="3.777" height="53.958" transform="translate(21.878 33.64)" fill="#ffa412"/>
        </g>
        <g id="Group_41111" data-name="Group 41111" transform="translate(769.585 174.477)">
            <rect id="Rectangle_9620" data-name="Rectangle 9620" width="3.657" height="10.534" transform="matrix(0.948, -0.318, 0.318, 0.948, 9.439, 6.228)" fill="#ed7d2b"/>
            <rect id="Rectangle_9621" data-name="Rectangle 9621" width="9.662" height="10.534" transform="translate(0.278 9.299) rotate(-18.529)" fill="#f99746"/>
            <rect id="Rectangle_9622" data-name="Rectangle 9622" width="0.737" height="9.662" transform="translate(11.076 11.114) rotate(71.47)" fill="#ffb93e"/>
            <rect id="Rectangle_9623" data-name="Rectangle 9623" width="0.737" height="3.657" transform="translate(14.544 9.952) rotate(71.47)" fill="#f69b34"/>
            <path id="Path_64966" data-name="Path 64966" d="M897.551,478.693s2.381-2.216,4.5-2.388l-.3.393.352.4a10.153,10.153,0,0,0-4.581,1.694Z" transform="translate(-890.642 -471.788)" fill="#ffb93e"/>
            <g id="Group_41110" data-name="Group 41110" transform="translate(0.079)">
                <path id="Path_64967" data-name="Path 64967" d="M777.381,461.927s-.38.078-.949.186c-1.512.285-4.357.777-4.972.555-.966-.349-.018-3.522.646-4.141S777.381,461.927,777.381,461.927Z" transform="translate(-771.048 -454.904)" fill="#ffb93e"/>
                <g id="Group_41109" data-name="Group 41109" transform="translate(6.342)">
                    <path id="Path_64968" data-name="Path 64968" d="M893.665,394.317c.344.592-4.646,5.321-4.646,5.321s.01-.327.032-.841h0c.082-1.877.328-6.252.851-6.368a.651.651,0,0,1,.194-.007A8.11,8.11,0,0,1,893.665,394.317Z" transform="translate(-889.019 -392.41)" fill="#ffb93e"/>
                    <path id="Path_64969" data-name="Path 64969" d="M890.811,392.868c-.151.748-1.169,5.715-1.185,5.792.082-1.877.328-6.252.851-6.368a.34.34,0,0,1,.194-.007C890.786,392.322,890.895,392.455,890.811,392.868Z" transform="translate(-889.593 -392.274)" fill="#f69b34"/>
                </g>
                <path id="Path_64970" data-name="Path 64970" d="M780.972,518.489h0c-1.512.286-4.357.777-4.972.555-.427-.544.126-.785.525-.968A30.382,30.382,0,0,1,780.972,518.489Z" transform="translate(-775.587 -511.28)" fill="#f69b34"/>
                <path id="Path_64971" data-name="Path 64971" d="M869.577,512.549a1.431,1.431,0,0,1,.717-1.125c.666-.272,1.334.437,1.334.437Z" transform="translate(-864.28 -504.959)" fill="#f69b34"/>
            </g>
            <rect id="Rectangle_9624" data-name="Rectangle 9624" width="10.11" height="1.449" transform="translate(0 9.392) rotate(-18.529)" fill="#ffa15a"/>
            <rect id="Rectangle_9625" data-name="Rectangle 9625" width="3.81" height="1.449" transform="translate(9.586 6.179) rotate(-18.529)" fill="#f78639"/>
            <path id="Path_64972" data-name="Path 64972" d="M804.5,529.225a6.842,6.842,0,0,0-3.212.852c-1.308.943-.618,2.715-.618,2.715l.3-.256.536.062s-.561-1.934.54-2.6A7.621,7.621,0,0,1,804.5,529.225Z" transform="translate(-798.824 -521.863)" fill="#ffbe55"/>
            <rect id="Rectangle_9626" data-name="Rectangle 9626" width="0.737" height="10.625" transform="matrix(0.948, -0.318, 0.318, 0.948, 4.049, 8.035)" fill="#ffb93e"/>
        </g>
        <g id="Group_41113" data-name="Group 41113" transform="translate(785.185 205.209)">
            <rect id="Rectangle_9627" data-name="Rectangle 9627" width="9.528" height="27.443" transform="translate(25.934 17.122)" fill="#4a75cb"/>
            <rect id="Rectangle_9628" data-name="Rectangle 9628" width="25.171" height="27.443" transform="translate(0.763 17.122)" fill="#739af0"/>
            <rect id="Rectangle_9629" data-name="Rectangle 9629" width="1.921" height="25.171" transform="translate(25.934 30.546) rotate(90)" fill="#afcdfb"/>
            <rect id="Rectangle_9630" data-name="Rectangle 9630" width="1.921" height="9.528" transform="translate(35.462 30.546) rotate(90)" fill="#88b3ff"/>
            <path id="Path_64973" data-name="Path 64973" d="M1412.794,1231.028s7.717-3.5,13.1-2.172l-1.074.718.541,1.269a26.45,26.45,0,0,0-12.718.391Z" transform="translate(-1393.669 -1214.328)" fill="#4a75cb"/>
            <g id="Group_41112" data-name="Group 41112" transform="translate(2.058)">
                <path id="Path_64974" data-name="Path 64974" d="M1113.788,1046.481s-1-.121-2.5-.327c-3.97-.546-11.406-1.689-12.741-2.746-2.1-1.661,2.872-8.714,5.024-9.693S1113.788,1046.481,1113.788,1046.481Z" transform="translate(-1098.042 -1029.916)" fill="#72a9f7"/>
                <path id="Path_64975" data-name="Path 64975" d="M1404.062,971.712c.358,1.748-15.881,9.3-15.881,9.3s.3-.8.776-2.05v0c1.756-4.569,5.985-15.171,7.375-15.025a1.683,1.683,0,0,1,.485.144C1398.954,965.016,1403.732,970.1,1404.062,971.712Z" transform="translate(-1372.583 -963.931)" fill="#72a9f7"/>
                <path id="Path_64976" data-name="Path 64976" d="M1410.366,965.631c-.992,1.723-7.62,13.148-7.724,13.326,1.756-4.569,5.985-15.171,7.375-15.025a.885.885,0,0,1,.485.144C1410.757,964.261,1410.914,964.679,1410.366,965.631Z" transform="translate(-1386.268 -963.931)" fill="#4a75cb"/>
                <path id="Path_64977" data-name="Path 64977" d="M1117.835,1183.192h0c-3.97-.546-11.406-1.689-12.741-2.746-.6-1.7.961-1.836,2.1-1.955S1117.835,1183.192,1117.835,1183.192Z" transform="translate(-1104.586 -1166.954)" fill="#4a75cb"/>
                <path id="Path_64978" data-name="Path 64978" d="M1334.59,1243.569s.91-2.071,2.7-2.185c1.871-.12,2.934,2.185,2.934,2.185Z" transform="translate(-1321.873 -1226.464)" fill="#4a75cb"/>
            </g>
            <rect id="Rectangle_9631" data-name="Rectangle 9631" width="26.338" height="3.775" transform="translate(0 17.122)" fill="#88b3ff"/>
            <rect id="Rectangle_9632" data-name="Rectangle 9632" width="9.927" height="3.775" transform="translate(26.338 17.122)" fill="#3969b7"/>
            <path id="Path_64979" data-name="Path 64979" d="M1133.139,1260.289s-5.158-1.634-8.64-.554c-4.012,1.245-3.774,6.2-3.774,6.2l.943-.388,1.274.6s.215-5.242,3.486-5.976A19.853,19.853,0,0,1,1133.139,1260.289Z" transform="translate(-1117.446 -1243.483)" fill="#4a75cb"/>
            <rect id="Rectangle_9633" data-name="Rectangle 9633" width="1.921" height="27.68" transform="translate(11.126 17.122)" fill="#afcdfb"/>
        </g>
        <g id="Group_41115" data-name="Group 41115" transform="translate(867.741 220.992)">
            <path id="Path_64980" data-name="Path 64980" d="M2604.965,1269.145q-.116.071-.236.137l-.081.044q-.092.049-.186.1a6.274,6.274,0,0,1-6.43-10.723,6.342,6.342,0,0,1,.641-.4q.12-.066.243-.127c.079-.039.159-.077.239-.113a6.274,6.274,0,0,1,1.883-.506,6.274,6.274,0,0,1,3.928,11.6Z" transform="translate(-2595.427 -1257.514)" fill="#ffb93e"/>
            <g id="Group_41114" data-name="Group 41114" transform="translate(0.592 0.623)">
                <path id="Path_64981" data-name="Path 64981" d="M2612.162,1280.531a5.719,5.719,0,1,1,2.754-.711A5.721,5.721,0,0,1,2612.162,1280.531Zm-.01-11.093a5.376,5.376,0,1,0,4.712,2.781A5.379,5.379,0,0,0,2612.153,1269.439Z" transform="translate(-2606.439 -1269.098)" fill="#ffa412"/>
            </g>
            <path id="Path_64982" data-name="Path 64982" d="M2641.011,1297.152l1.26,2.554,2.819.41-2.04,1.988.482,2.807-2.521-1.325-2.521,1.325.481-2.807-2.04-1.988,2.819-.41Z" transform="translate(-2634.7 -1295.021)" fill="#ffa412"/>
        </g>
        <g id="Group_41117" data-name="Group 41117" transform="translate(875.656 210.792)">
            <path id="Path_64983" data-name="Path 64983" d="M2748.033,1074.346q-.066.04-.133.077l-.046.025-.1.054a3.541,3.541,0,0,1-3.268-6.28c.045-.025.091-.049.137-.072s.089-.044.135-.064a3.541,3.541,0,0,1,3.28,6.259Z" transform="translate(-2742.649 -1067.781)" fill="#ffb93e"/>
            <g id="Group_41116" data-name="Group 41116" transform="translate(0.334 0.351)">
                <path id="Path_64984" data-name="Path 64984" d="M2752.094,1080.771a3.228,3.228,0,1,1,1.554-.4A3.229,3.229,0,0,1,2752.094,1080.771Zm-.006-6.261a3.034,3.034,0,1,0,2.66,1.57A3.038,3.038,0,0,0,2752.088,1074.51Z" transform="translate(-2748.864 -1074.318)" fill="#ffa412"/>
            </g>
            <path id="Path_64985" data-name="Path 64985" d="M2768.375,1090.152l.712,1.442,1.591.231-1.151,1.122.272,1.584-1.423-.748-1.423.748.272-1.584-1.151-1.122,1.591-.231Z" transform="translate(-2764.814 -1088.95)" fill="#ffa412"/>
        </g>
        <g id="Group_41119" data-name="Group 41119" transform="translate(815.277 166.849)">
            <path id="Path_64986" data-name="Path 64986" d="M1624.544,255.012c-.026.032-.052.063-.08.094l-.028.031-.065.069a2.837,2.837,0,0,1-4.143-3.873c.027-.031.056-.061.084-.091s.056-.057.085-.084a2.837,2.837,0,0,1,4.146,3.855Z" transform="translate(-1619.51 -250.383)" fill="#cde0fb"/>
            <g id="Group_41118" data-name="Group 41118" transform="translate(0.277 0.274)">
                <path id="Path_64987" data-name="Path 64987" d="M1627.245,260.652a2.59,2.59,0,1,1,.152,0Q1627.321,260.652,1627.245,260.652Zm.006-5.015q-.071,0-.143,0a2.428,2.428,0,1,0,.143,0Z" transform="translate(-1624.664 -255.483)" fill="#afcdfb"/>
            </g>
            <path id="Path_64988" data-name="Path 64988" d="M1638.195,270.18l.922.9,1.263-.249-.571,1.155.628,1.124-1.274-.186-.876.944-.217-1.269-1.169-.541,1.14-.6Z" transform="translate(-1635.966 -269.116)" fill="#afcdfb"/>
        </g>
        <g id="Group_41121" data-name="Group 41121" transform="translate(803.025 239.573)">
            <path id="Path_64989" data-name="Path 64989" d="M1400.6,1611.412c-.046.057-.094.113-.143.167l-.05.055c-.038.042-.077.083-.116.123a5.067,5.067,0,0,1-7.779-6.439,5.132,5.132,0,0,1,.379-.48c.049-.055.1-.109.151-.162s.1-.1.152-.15a5.062,5.062,0,0,1,1.3-.891,5.067,5.067,0,0,1,6.108,7.777Z" transform="translate(-1391.609 -1603.143)" fill="#cde0fb"/>
            <g id="Group_41120" data-name="Group 41120" transform="translate(0.495 0.49)">
                <path id="Path_64990" data-name="Path 64990" d="M1405.426,1621.488a4.622,4.622,0,1,1,.272-.008Q1405.562,1621.488,1405.426,1621.488Zm.012-8.957c-.085,0-.17,0-.256.007a4.34,4.34,0,1,0,.256-.007Z" transform="translate(-1400.816 -1612.256)" fill="#afcdfb"/>
            </g>
            <path id="Path_64991" data-name="Path 64991" d="M1424.984,1638.506l1.646,1.606,2.257-.446-1.019,2.062,1.121,2.008-2.276-.332-1.564,1.687-.388-2.267-2.088-.966,2.037-1.069Z" transform="translate(-1421.004 -1636.605)" fill="#afcdfb"/>
        </g>
        <g id="Group_41122" data-name="Group 41122" transform="translate(824.777 213.026)">
            <path id="Path_64992" data-name="Path 64992" d="M1799.341,1145.318a2.517,2.517,0,0,1-1.482.4,2.28,2.28,0,0,1-1.171-.63l-.462.8a3.3,3.3,0,0,0,1.96.465,2.3,2.3,0,0,0,.93-.536A.784.784,0,0,0,1799.341,1145.318Z" transform="translate(-1796.226 -1143.166)" fill="#6bb7bf"/>
            <path id="Path_64993" data-name="Path 64993" d="M1836.364,1109.826l1.159-.48a3.77,3.77,0,0,1-2.151,3.147S1836.631,1110.843,1836.364,1109.826Z" transform="translate(-1833.269 -1109.346)" fill="#86d1cd"/>
        </g>
        <path id="Path_64994" data-name="Path 64994" d="M2001.443,1654.2a1.663,1.663,0,0,0,1,.563s.066.627-.114.794c0,0-.853-.156-1.058-.468C2001.276,1655.089,2001.1,1654.341,2001.443,1654.2Z" transform="translate(-1165.435 -1411.883)" fill="#f99746"/>
        <g id="Group_41123" data-name="Group 41123" transform="translate(827.04 231.841)">
            <path id="Path_64995" data-name="Path 64995" d="M1839.345,1461.918a2.138,2.138,0,0,1-.452-1.223,1.936,1.936,0,0,1,.443-1.039l-.714-.329a2.8,2.8,0,0,0-.242,1.694,1.952,1.952,0,0,0,.524.745A.668.668,0,0,0,1839.345,1461.918Z" transform="translate(-1838.321 -1459.327)" fill="#cde0fb"/>
            <path id="Path_64996" data-name="Path 64996" d="M1842.6,1493.676l.5.944a3.2,3.2,0,0,1-2.827-1.577S1841.765,1493.979,1842.6,1493.676Z" transform="translate(-1840.168 -1491.229)" fill="#cde0fb"/>
        </g>
    </g>
</svg>
