<svg id="polygon_orange" data-name="polygon orange"
    xmlns="http://www.w3.org/2000/svg" width="108.94" height="121.534" viewBox="0 0 108.94 121.534">
    <path id="Path_23699" data-name="Path 23699" d="M-468.744,395.775v-47a13.763,13.763,0,0,0-6.882-11.92l-40.706-23.5a13.765,13.765,0,0,0-13.764,0l-40.706,23.5a13.764,13.764,0,0,0-6.882,11.92v47a13.764,13.764,0,0,0,6.882,11.92l40.706,23.5a13.765,13.765,0,0,0,13.764,0l40.706-23.5A13.763,13.763,0,0,0-468.744,395.775Z" transform="translate(577.684 -311.507)" fill="#5878a5" opacity="0.26"/>
    <path id="Path_23700" data-name="Path 23700" d="M-467.443,401.174V361.965a13.765,13.765,0,0,0-6.882-11.92l-33.956-19.6a13.762,13.762,0,0,0-13.764,0L-556,350.044a13.764,13.764,0,0,0-6.882,11.92v39.209A13.764,13.764,0,0,0-556,413.094l33.956,19.6a13.765,13.765,0,0,0,13.764,0l33.956-19.6A13.764,13.764,0,0,0-467.443,401.174Z" transform="translate(569.633 -320.802)" fill="#fff"/>
</svg>
